<?xml version="1.0" encoding="UTF-8"?>
<!DOCTYPE svg PUBLIC "-//W3C//DTD SVG 1.1//EN" "http://www.w3.org/Graphics/SVG/1.1/DTD/svg11.dtd">
<svg version="1.2" width="181.38mm" height="211.66mm" viewBox="0 0 18138 21166" preserveAspectRatio="xMidYMid" fill-rule="evenodd" stroke-width="28.222" stroke-linejoin="round" xmlns="http://www.w3.org/2000/svg" xmlns:ooo="http://xml.openoffice.org/svg/export" xmlns:xlink="http://www.w3.org/1999/xlink" xmlns:presentation="http://sun.com/xmlns/staroffice/presentation" xmlns:smil="http://www.w3.org/2001/SMIL20/" xmlns:anim="urn:oasis:names:tc:opendocument:xmlns:animation:1.0" xmlns:svg="urn:oasis:names:tc:opendocument:xmlns:svg-compatible:1.0" xml:space="preserve">
 <defs class="ClipPathGroup">
  <clipPath id="presentation_clip_path" clipPathUnits="userSpaceOnUse">
   <rect x="0" y="0" width="18138" height="21166"/>
  </clipPath>
  <clipPath id="presentation_clip_path_shrink" clipPathUnits="userSpaceOnUse">
   <rect x="18" y="21" width="18102" height="21124"/>
  </clipPath>
 </defs>
 <defs class="TextShapeIndex">
  <g ooo:slide="id1" ooo:id-list="id3"/>
 </defs>
 <defs class="EmbeddedBulletChars">
  <g id="bullet-char-template-57356" transform="scale(0.00048828125,-0.00048828125)">
   <path d="M 580,1141 L 1163,571 580,0 -4,571 580,1141 Z"/>
  </g>
  <g id="bullet-char-template-57354" transform="scale(0.00048828125,-0.00048828125)">
   <path d="M 8,1128 L 1137,1128 1137,0 8,0 8,1128 Z"/>
  </g>
  <g id="bullet-char-template-10146" transform="scale(0.00048828125,-0.00048828125)">
   <path d="M 174,0 L 602,739 174,1481 1456,739 174,0 Z M 1358,739 L 309,1346 659,739 1358,739 Z"/>
  </g>
  <g id="bullet-char-template-10132" transform="scale(0.00048828125,-0.00048828125)">
   <path d="M 2015,739 L 1276,0 717,0 1260,543 174,543 174,936 1260,936 717,1481 1274,1481 2015,739 Z"/>
  </g>
  <g id="bullet-char-template-10007" transform="scale(0.00048828125,-0.00048828125)">
   <path d="M 0,-2 C -7,14 -16,27 -25,37 L 356,567 C 262,823 215,952 215,954 215,979 228,992 255,992 264,992 276,990 289,987 310,991 331,999 354,1012 L 381,999 492,748 772,1049 836,1024 860,1049 C 881,1039 901,1025 922,1006 886,937 835,863 770,784 769,783 710,716 594,584 L 774,223 C 774,196 753,168 711,139 L 727,119 C 717,90 699,76 672,76 641,76 570,178 457,381 L 164,-76 C 142,-110 111,-127 72,-127 30,-127 9,-110 8,-76 1,-67 -2,-52 -2,-32 -2,-23 -1,-13 0,-2 Z"/>
  </g>
  <g id="bullet-char-template-10004" transform="scale(0.00048828125,-0.00048828125)">
   <path d="M 285,-33 C 182,-33 111,30 74,156 52,228 41,333 41,471 41,549 55,616 82,672 116,743 169,778 240,778 293,778 328,747 346,684 L 369,508 C 377,444 397,411 428,410 L 1163,1116 C 1174,1127 1196,1133 1229,1133 1271,1133 1292,1118 1292,1087 L 1292,965 C 1292,929 1282,901 1262,881 L 442,47 C 390,-6 338,-33 285,-33 Z"/>
  </g>
  <g id="bullet-char-template-9679" transform="scale(0.00048828125,-0.00048828125)">
   <path d="M 813,0 C 632,0 489,54 383,161 276,268 223,411 223,592 223,773 276,916 383,1023 489,1130 632,1184 813,1184 992,1184 1136,1130 1245,1023 1353,916 1407,772 1407,592 1407,412 1353,268 1245,161 1136,54 992,0 813,0 Z"/>
  </g>
  <g id="bullet-char-template-8226" transform="scale(0.00048828125,-0.00048828125)">
   <path d="M 346,457 C 273,457 209,483 155,535 101,586 74,649 74,723 74,796 101,859 155,911 209,963 273,989 346,989 419,989 480,963 531,910 582,859 608,796 608,723 608,648 583,586 532,535 482,483 420,457 346,457 Z"/>
  </g>
  <g id="bullet-char-template-8211" transform="scale(0.00048828125,-0.00048828125)">
   <path d="M -4,459 L 1135,459 1135,606 -4,606 -4,459 Z"/>
  </g>
  <g id="bullet-char-template-61548" transform="scale(0.00048828125,-0.00048828125)">
   <path d="M 173,740 C 173,903 231,1043 346,1159 462,1274 601,1332 765,1332 928,1332 1067,1274 1183,1159 1299,1043 1357,903 1357,740 1357,577 1299,437 1183,322 1067,206 928,148 765,148 601,148 462,206 346,322 231,437 173,577 173,740 Z"/>
  </g>
 </defs>
 <g>
  <g id="id2" class="Master_Slide">
   <g id="bg-id2" class="Background"/>
   <g id="bo-id2" class="BackgroundObjects"/>
  </g>
 </g>
 <g class="SlideGroup">
  <g>
   <g id="container-id1">
    <g id="id1" class="Slide" clip-path="url(#presentation_clip_path)">
     <g class="Page">
      <g class="com.sun.star.drawing.ClosedBezierShape">
       <g id="id3">
        <rect class="BoundingBox" stroke="none" fill="none" x="1929" y="3324" width="13704" height="15105"/>
        <path fill="rgb(0,0,0)" stroke="none" d="M 15241,8263 C 15267,8268 15296,8275 15326,8276 L 15336,8192 C 15300,8189 15262,8180 15226,8173 15219,8133 15217,8093 15219,8050 15274,8066 15340,8081 15414,8083 15480,8084 15551,8076 15632,8057 L 15609,7977 C 15437,8020 15313,7999 15222,7960 15230,7835 15255,7706 15305,7561 15531,6916 15570,6525 15432,6295 15334,6133 15160,6067 14930,6015 14609,5944 13739,6185 13141,6595 12715,6888 12486,7222 12474,7556 12460,7923 12562,8406 12660,8874 12780,9434 12902,10012 12798,10317 12581,10324 12317,10368 12074,10410 12040,10417 12011,10423 11977,10430 11937,10408 11897,10385 11861,10363 11713,10282 11587,10208 11479,10239 11419,10255 11378,10302 11342,10375 11317,10432 11319,10478 11347,10511 11418,10593 11618,10573 11959,10516 12071,10572 12194,10624 12330,10640 12276,10686 12246,10748 12238,10825 12222,10998 12248,11164 12268,11297 12268,11300 12268,11304 12273,11308 11579,11022 10914,11684 10907,11690 L 10796,11801 10952,11758 C 10956,11758 11365,11646 11962,11733 12141,11761 12252,11744 12321,11685 12393,11625 12393,11524 12380,11399 12466,11347 12844,11177 13516,11594 13356,11577 13124,11570 12982,11628 12780,11707 12473,11642 12469,11641 L 12463,11641 12455,11641 C 12430,11644 12391,11660 12375,11694 12356,11740 12380,11800 12454,11882 12376,11887 12211,11875 12071,11864 11528,11828 11105,11814 11022,11976 10978,12056 11030,12160 11171,12293 11197,12324 11444,12577 12112,12535 12467,12511 12524,12575 12527,12583 12530,12586 12530,12589 12526,12600 12507,12629 12440,12664 12363,12663 L 12285,12662 C 12113,12654 11851,12643 11757,12796 11671,12938 11769,13174 12046,13517 12254,13774 12321,13985 12240,14152 12118,14400 11695,14476 11587,14495 11581,14495 11569,14495 11563,14496 11540,14494 11503,14494 11451,14500 10457,14518 9472,13873 8365,13058 8238,12966 8125,12869 8028,12774 8799,12429 9330,12154 9140,10601 9829,10345 10636,9850 10668,9480 10681,9337 10581,9227 10382,9149 10077,9036 9923,8902 9926,8750 9928,8473 10453,8119 11406,7760 12207,7458 12281,7053 12345,6701 12411,6347 12471,6013 13245,5784 14849,5306 14815,4216 14816,4205 L 14802,3918 14724,4200 C 14657,4452 14379,4581 13578,4831 12804,5075 12570,5344 12410,5759 12402,5787 12390,5808 12382,5836 12263,6155 12198,6328 11032,6694 10927,6725 10821,6755 10716,6789 10616,6820 10511,6848 10414,6881 10445,6844 10471,6806 10496,6771 10534,6715 10580,6665 10651,6636 10779,6582 10902,6521 11043,6486 11084,6478 11124,6468 11169,6462 11329,6442 11488,6415 11637,6353 11671,6340 11704,6322 11739,6306 11753,6298 11765,6285 11780,6280 11916,6198 12004,6084 12060,5949 12082,5900 12094,5848 12107,5794 12138,5677 12167,5563 12197,5448 12211,5394 12213,5342 12218,5288 12218,5277 12222,5268 12219,5259 12211,5245 12205,5227 12194,5224 12184,5219 12164,5227 12154,5236 12127,5263 12099,5289 12077,5318 12008,5411 11922,5489 11829,5562 11753,5618 11674,5673 11580,5710 11490,5746 11404,5790 11317,5830 11244,5861 11172,5897 11107,5942 10997,6022 10899,6107 10818,6209 10783,6254 10745,6302 10710,6350 10722,6314 10731,6277 10743,6240 10766,6228 10773,6205 10783,6180 10810,6105 10843,6027 10868,5952 10889,5877 10933,5810 10989,5753 11032,5714 11084,5683 11136,5645 11239,5577 11351,5533 11474,5501 11508,5493 11541,5479 11578,5466 11601,5460 11619,5450 11641,5446 11652,5454 11658,5461 11670,5472 11727,5520 11802,5510 11843,5452 11852,5442 11859,5428 11863,5419 11871,5402 11878,5388 11899,5379 11932,5358 11939,5340 11929,5323 11915,5299 11893,5299 11867,5306 L 11852,5306 C 11814,5270 11767,5233 11704,5259 11632,5288 11630,5345 11632,5410 11572,5431 11509,5456 11446,5472 11308,5509 11181,5556 11068,5641 11049,5654 11029,5668 11004,5678 11062,5579 11099,5468 11194,5390 11270,5328 11346,5264 11429,5217 11526,5158 11631,5126 11739,5096 11818,5072 11896,5044 11978,5018 12062,4995 12144,4970 12223,4930 12243,4921 12258,4921 12270,4937 12282,4948 12289,4956 12299,4965 12342,4995 12395,4990 12425,4947 12445,4925 12456,4897 12475,4876 12484,4865 12496,4855 12502,4849 12526,4829 12530,4806 12520,4784 12506,4765 12488,4759 12451,4764 12436,4767 12417,4767 12399,4763 12363,4756 12326,4759 12291,4775 12236,4797 12217,4836 12224,4893 12166,4923 12106,4939 12046,4958 11946,4985 11845,5011 11745,5039 11673,5059 11603,5082 11532,5106 11443,5133 11364,5175 11296,5234 11269,5257 11246,5276 11220,5296 11217,5294 11212,5294 11212,5294 L 11212,5290 C 11256,5210 11300,5128 11346,5048 11371,5007 11397,4972 11428,4936 11483,4876 11536,4820 11592,4763 11612,4766 11626,4768 11641,4768 11692,4774 11729,4757 11745,4714 11758,4688 11776,4675 11806,4669 11848,4659 11888,4651 11929,4644 12062,4620 12196,4596 12328,4575 12391,4566 12454,4553 12522,4551 12569,4549 12614,4534 12655,4513 12712,4488 12770,4461 12824,4438 12834,4441 12838,4441 12842,4444 12931,4509 13047,4466 13073,4363 13081,4331 13079,4302 13110,4274 13128,4261 13121,4235 13104,4217 13086,4201 13053,4193 13032,4205 13020,4213 13008,4226 12996,4235 12849,4233 12819,4261 12822,4410 12802,4416 12783,4426 12768,4432 12656,4492 12533,4522 12400,4533 12275,4543 12152,4572 12030,4588 11945,4601 11859,4613 11772,4624 11753,4602 11758,4580 11780,4562 11804,4541 11826,4523 11849,4502 11906,4453 11962,4408 12017,4358 12073,4310 12137,4268 12209,4232 12216,4235 12224,4238 12233,4242 12324,4280 12415,4236 12412,4143 12408,4097 12429,4075 12463,4051 12542,3997 12628,3954 12727,3929 12825,3908 12922,3884 13007,3839 13019,3831 13034,3835 13048,3840 13102,3858 13150,3841 13199,3824 13244,3809 13260,3769 13262,3725 13263,3698 13263,3675 13294,3656 13317,3644 13314,3610 13296,3592 13279,3575 13249,3575 13227,3591 13219,3597 13212,3608 13203,3615 13174,3610 13144,3607 13119,3606 13054,3608 13018,3638 13012,3702 13011,3731 13007,3765 13002,3802 12979,3804 12957,3807 12939,3813 12838,3839 12741,3866 12641,3895 12603,3904 12569,3924 12536,3940 12475,3973 12420,4007 12363,4040 12224,4011 12160,4060 12173,4188 12170,4190 12166,4197 12158,4200 12121,4224 12084,4245 12038,4272 12042,4255 12042,4244 12046,4238 12091,4126 12132,4010 12184,3900 12228,3814 12290,3735 12344,3652 12353,3643 12371,3636 12383,3633 12408,3627 12437,3628 12464,3618 12519,3598 12547,3550 12534,3495 12527,3470 12521,3452 12537,3427 12552,3403 12521,3370 12494,3383 12460,3397 12431,3390 12398,3392 12306,3402 12247,3523 12295,3594 12301,3605 12313,3615 12324,3629 12304,3655 12289,3685 12265,3711 12187,3802 12132,3905 12084,4012 12041,4112 11984,4211 11951,4314 11931,4374 11890,4416 11844,4455 11817,4478 11786,4505 11760,4526 11746,4514 11739,4494 11724,4490 11709,4487 11694,4504 11669,4512 11559,4504 11497,4566 11523,4666 11529,4693 11551,4720 11564,4754 11521,4804 11472,4858 11419,4915 11405,4875 11406,4843 11411,4809 11435,4638 11468,4470 11489,4294 11509,4156 11562,4026 11611,3892 11622,3857 11641,3823 11658,3788 L 11692,3789 C 11758,3792 11798,3769 11820,3712 11824,3699 11828,3686 11828,3669 11830,3634 11824,3597 11847,3560 11859,3543 11848,3523 11828,3509 11805,3496 11779,3496 11765,3511 11741,3538 11711,3538 11682,3540 11634,3544 11608,3568 11592,3608 11570,3668 11580,3699 11629,3769 11601,3837 11573,3902 11546,3970 11472,4134 11436,4307 11415,4481 11405,4577 11383,4671 11365,4768 11360,4802 11351,4838 11353,4871 11352,4902 11347,4928 11335,4955 11312,5001 11284,5044 11278,5098 11278,5113 11262,5130 11255,5150 11250,5147 11247,5144 11247,5144 11266,5030 11246,4918 11235,4809 11214,4645 11188,4484 11167,4320 11164,4307 11165,4296 11165,4282 11266,4230 11296,4124 11189,4053 11189,4042 11193,4031 11193,4024 11194,3996 11177,3975 11147,3975 11121,3971 11096,3983 11090,4011 11086,4034 11078,4051 11060,4068 11051,4072 11044,4086 11044,4097 11049,4140 11050,4186 11064,4230 11074,4262 11106,4274 11142,4282 11147,4296 11149,4313 11152,4325 11175,4523 11194,4721 11219,4918 11233,5029 11218,5137 11192,5243 11161,5375 11076,5488 11013,5610 11013,5504 11021,5393 11018,5286 11014,5180 11003,5071 10974,4967 10986,4961 10997,4954 11007,4950 11061,4915 11074,4846 11033,4802 11018,4785 11004,4770 10990,4755 10979,4744 10971,4731 10968,4720 10962,4700 10951,4683 10930,4683 10907,4682 10897,4696 10884,4711 10876,4725 10861,4735 10850,4746 10808,4764 10775,4788 10770,4834 10768,4880 10800,4907 10838,4933 10847,4936 10858,4944 10868,4947 10935,4956 10951,5004 10959,5054 10971,5122 10977,5185 10986,5252 11003,5372 10992,5493 10980,5613 10974,5667 10961,5717 10930,5763 10907,5803 10890,5846 10874,5889 10850,5955 10821,6022 10796,6091 10814,6002 10826,5908 10806,5818 10776,5646 10719,5488 10572,5365 10477,5283 10391,5195 10302,5110 10253,5062 10218,5008 10191,4950 10164,4886 10130,4826 10079,4775 10076,4767 10069,4764 10065,4758 10041,4731 10029,4731 9996,4752 9996,4757 9992,4760 9995,4760 10024,4867 9988,4974 9995,5079 10000,5127 9995,5177 9993,5224 9993,5316 10011,5398 10053,5479 10080,5536 10101,5597 10132,5651 10173,5736 10213,5823 10266,5901 10325,5993 10373,6083 10399,6190 10411,6255 10432,6315 10444,6380 10460,6449 10452,6519 10440,6593 10435,6629 10426,6666 10421,6702 10407,6776 10378,6848 10342,6918 10339,6923 10339,6929 10338,6932 9604,7170 8969,7504 8851,8524 8807,8426 8778,8325 8767,8220 8762,8168 8756,8113 8746,8059 8737,7956 8736,7852 8763,7752 8787,7662 8820,7573 8850,7484 8895,7333 8977,7202 9071,7072 9152,6961 9223,6838 9293,6717 9340,6636 9376,6550 9424,6471 9491,6355 9528,6232 9538,6101 9540,6031 9538,5960 9552,5893 9576,5736 9534,5577 9587,5424 9588,5421 9588,5416 9585,5412 9535,5377 9523,5376 9481,5414 9474,5422 9465,5433 9458,5439 9382,5510 9328,5597 9280,5687 9232,5773 9175,5847 9102,5914 8961,6035 8828,6159 8681,6270 8460,6439 8356,6667 8296,6910 8262,7042 8269,7175 8282,7305 8253,7207 8223,7111 8192,7013 8173,6950 8157,6886 8122,6825 8085,6755 8069,6684 8067,6607 8064,6432 8059,6259 8098,6085 8116,5992 8135,5896 8156,5802 8174,5730 8203,5660 8302,5648 8317,5645 8329,5637 8344,5633 8404,5600 8453,5561 8456,5493 8458,5427 8407,5392 8350,5361 8331,5350 8313,5335 8303,5314 8290,5291 8276,5271 8242,5273 8205,5275 8190,5295 8182,5326 8173,5341 8163,5358 8147,5375 8123,5397 8101,5417 8077,5440 8017,5502 8027,5603 8099,5655 8113,5666 8128,5672 8143,5682 8086,5831 8062,5984 8045,6142 8028,6299 8025,6456 8016,6612 7942,6435 7830,6267 7797,6074 7773,5916 7761,5763 7792,5603 7846,5320 7898,5034 7953,4746 7957,4723 7965,4701 7970,4683 8022,4670 8073,4654 8090,4611 8110,4548 8121,4482 8133,4417 8134,4405 8124,4385 8113,4374 8085,4352 8074,4324 8072,4290 8070,4257 8034,4237 7997,4239 7957,4241 7930,4267 7928,4307 7928,4324 7930,4338 7933,4352 7768,4446 7804,4606 7944,4683 7940,4699 7939,4715 7934,4736 7886,4969 7829,5205 7783,5438 7752,5598 7708,5759 7725,5921 7725,5924 7722,5927 7714,5932 7703,5905 7686,5880 7684,5854 7678,5777 7644,5713 7617,5646 7600,5606 7595,5568 7600,5524 7605,5474 7601,5425 7594,5376 7581,5236 7560,5095 7550,4959 7538,4705 7503,4454 7416,4211 7384,4114 7350,4016 7317,3918 7398,3816 7410,3773 7388,3689 7372,3629 7332,3591 7267,3584 7222,3580 7181,3579 7150,3538 7129,3512 7092,3512 7063,3534 7033,3550 7017,3579 7031,3604 7058,3657 7048,3709 7046,3763 7045,3783 7053,3804 7055,3824 7077,3907 7135,3945 7231,3941 7245,3941 7260,3942 7278,3939 7299,3993 7319,4043 7335,4097 7395,4291 7457,4484 7468,4685 7485,4932 7509,5179 7526,5430 7531,5476 7526,5527 7506,5584 7435,5496 7372,5418 7312,5346 7340,5300 7369,5263 7382,5225 7432,5084 7347,4988 7188,4996 7156,4979 7131,4958 7112,4962 7091,4965 7078,4994 7056,5014 7016,4976 6981,4938 6942,4905 6878,4844 6821,4786 6798,4694 6756,4544 6692,4399 6638,4254 6578,4099 6509,3946 6407,3812 6379,3776 6356,3731 6334,3692 6353,3670 6369,3657 6381,3645 6458,3546 6384,3367 6252,3349 6204,3340 6159,3347 6112,3330 6072,3310 6028,3353 6044,3392 6064,3429 6048,3458 6037,3489 6011,3567 6047,3639 6129,3669 6165,3684 6206,3685 6247,3695 6265,3698 6294,3710 6300,3724 6370,3844 6450,3959 6504,4087 6572,4249 6617,4421 6670,4585 6673,4599 6672,4613 6675,4635 6614,4595 6561,4560 6509,4524 6503,4516 6495,4510 6489,4506 6522,4326 6432,4246 6229,4283 6153,4232 6075,4176 5991,4129 5944,4101 5897,4074 5847,4056 5709,4011 5565,3968 5427,3924 5399,3914 5365,3910 5337,3904 5334,3850 5333,3806 5331,3760 5331,3674 5280,3625 5185,3620 5145,3619 5104,3625 5063,3627 5053,3618 5042,3603 5031,3594 4999,3567 4960,3566 4929,3592 4902,3615 4892,3661 4926,3685 4964,3713 4966,3746 4965,3786 4962,3846 4980,3903 5045,3931 5113,3960 5183,3984 5264,3959 5283,3952 5306,3952 5320,3960 5443,4028 5576,4070 5715,4108 5853,4146 5976,4213 6088,4297 6135,4332 6158,4366 6152,4429 6141,4563 6267,4635 6402,4584 6412,4581 6424,4573 6435,4572 6532,4625 6622,4688 6700,4763 6774,4837 6853,4907 6927,4981 6959,5012 6988,5042 7019,5073 7053,5105 7055,5131 7027,5165 6903,5141 6779,5121 6658,5101 6480,5067 6304,5020 6128,5002 5938,4980 5767,4930 5607,4838 5583,4823 5557,4812 5531,4799 5551,4593 5508,4544 5294,4540 5280,4526 5266,4509 5248,4496 5216,4476 5171,4483 5145,4507 5118,4531 5105,4568 5131,4588 5174,4626 5164,4672 5174,4719 5198,4871 5365,4937 5497,4847 5500,4842 5508,4842 5523,4839 5599,4878 5679,4915 5758,4956 5816,4988 5878,5008 5946,5017 6038,5029 6130,5045 6221,5062 6411,5102 6605,5143 6795,5187 6853,5197 6912,5216 6971,5230 7010,5240 7039,5262 7052,5301 7071,5366 7126,5390 7200,5384 7222,5381 7245,5378 7270,5374 7344,5464 7418,5548 7489,5636 7528,5688 7562,5745 7593,5803 7651,5920 7706,6041 7761,6161 L 7761,6166 C 7761,6166 7756,6169 7749,6173 7717,6142 7681,6112 7646,6077 7553,5989 7446,5919 7319,5877 7216,5843 7119,5808 7017,5771 6875,5725 6732,5684 6590,5638 6504,5609 6416,5581 6337,5536 6358,5452 6331,5396 6255,5361 6208,5336 6157,5332 6101,5341 6079,5345 6053,5344 6027,5336 5980,5325 5946,5332 5927,5361 5908,5391 5913,5424 5945,5455 5959,5469 5974,5479 5985,5495 6010,5530 6027,5566 6050,5604 6092,5668 6166,5680 6233,5638 6248,5627 6264,5614 6279,5600 6303,5582 6321,5579 6345,5594 6453,5654 6573,5694 6694,5736 6806,5775 6916,5820 7028,5858 7181,5911 7329,5963 7465,6055 7584,6133 7688,6225 7788,6318 7916,6434 7957,6595 8034,6743 8000,6729 7973,6711 7947,6692 7794,6565 7612,6489 7415,6428 7324,6399 7242,6360 7154,6329 7161,6237 7164,6152 7067,6107 6976,6065 6908,6118 6844,6163 6833,6163 6829,6163 6826,6160 6789,6145 6756,6148 6733,6181 6712,6207 6723,6238 6770,6265 6795,6280 6806,6300 6815,6323 6823,6340 6829,6357 6840,6374 6896,6462 7005,6478 7092,6411 7107,6401 7119,6389 7134,6375 7163,6387 7193,6399 7222,6411 7269,6429 7316,6453 7366,6467 7537,6520 7698,6588 7837,6694 7904,6744 7980,6796 8037,6856 8114,6939 8167,7036 8192,7148 8218,7261 8253,7373 8290,7487 8299,7517 8309,7550 8338,7575 8351,7629 8363,7682 8373,7736 8323,7661 8275,7592 8229,7522 8125,7370 7990,7241 7842,7124 7753,7055 7653,7000 7548,6951 7425,6890 7306,6820 7182,6765 7051,6709 6944,6623 6840,6537 6712,6432 6598,6313 6508,6174 6480,6130 6445,6089 6405,6052 6396,6039 6367,6028 6349,6031 6334,6035 6318,6059 6309,6078 6302,6090 6305,6107 6304,6121 6308,6197 6305,6278 6317,6354 6344,6523 6375,6689 6409,6861 6425,6938 6437,7016 6463,7089 6533,7287 6648,7458 6836,7580 6857,7594 6871,7612 6892,7621 6939,7650 6983,7677 7034,7698 7243,7791 7470,7838 7701,7877 7760,7887 7822,7902 7879,7917 8076,7971 8250,8072 8430,8154 8529,8199 8589,8271 8640,8355 8696,8446 8763,8532 8823,8621 8832,8633 8843,8641 8861,8656 8838,9013 8870,9451 8978,9991 9021,10205 9055,10403 9081,10584 8969,10626 8861,10658 8765,10682 8266,10807 7675,11184 7548,11713 7531,11793 7521,11882 7527,11983 7510,11939 7494,11893 7481,11849 7457,11768 7427,11694 7401,11613 7392,11590 7388,11563 7397,11536 7422,11431 7446,11324 7478,11221 7500,11153 7538,11092 7570,11028 7577,11011 7598,10996 7616,10989 7683,10959 7726,10907 7724,10838 7723,10776 7695,10726 7642,10693 7602,10664 7554,10660 7509,10679 7460,10703 7433,10738 7428,10789 7426,10832 7443,10873 7474,10903 7500,10931 7499,10953 7480,10983 7386,11122 7341,11272 7302,11429 7296,11447 7289,11467 7280,11493 7270,11484 7262,11481 7259,11475 7185,11399 7113,11321 7039,11248 7015,11226 6998,11201 6994,11169 6992,11141 6989,11115 6990,11085 6988,11054 6985,11020 6982,10989 6978,10925 6969,10856 6972,10787 6984,10540 7023,10294 7091,10054 7136,9901 7162,9744 7156,9583 7152,9477 7141,9370 7132,9262 7114,9118 7108,8974 7110,8828 7113,8645 7179,8477 7269,8313 7281,8293 7293,8274 7300,8255 7304,8245 7295,8234 7290,8220 7280,8224 7260,8227 7253,8233 7238,8254 7222,8275 7210,8300 7178,8358 7151,8418 7119,8484 7064,8594 7004,8701 6952,8814 6884,8967 6875,9124 6920,9284 6956,9413 6981,9546 7028,9670 7034,9688 7038,9705 7032,9722 7025,9822 7025,9917 6985,10014 6953,10092 6939,10167 6944,10248 6946,10279 6945,10311 6940,10342 6927,10479 6915,10615 6902,10752 6896,10829 6897,10906 6913,10984 6919,11016 6926,11050 6919,11089 6913,11081 6910,11070 6902,11064 6851,10969 6802,10874 6751,10783 6720,10725 6700,10668 6695,10605 6682,10478 6675,10349 6653,10222 6639,10125 6639,10025 6631,9929 6620,9754 6582,9582 6537,9416 6529,9388 6515,9365 6507,9337 6472,9258 6439,9172 6400,9096 6377,9044 6350,8998 6318,8949 6290,8905 6257,8866 6231,8824 6223,8815 6217,8801 6206,8794 6198,8791 6188,8786 6180,8786 6173,8791 6169,8800 6164,8807 6160,8813 6163,8821 6168,8826 6213,8995 6213,9168 6218,9339 6224,9509 6299,9648 6408,9773 6482,9858 6527,9950 6556,10051 6582,10146 6598,10246 6604,10344 6615,10473 6639,10604 6668,10732 6677,10782 6712,10826 6737,10869 6764,10921 6792,10968 6812,11017 6765,10984 6727,10942 6694,10898 6632,10804 6554,10722 6462,10650 6429,10628 6408,10589 6384,10562 6327,10501 6270,10439 6213,10380 6202,10369 6192,10358 6181,10344 6123,10241 6052,10139 6005,10027 5948,9895 5902,9757 5854,9623 5845,9597 5841,9566 5836,9536 5830,9505 5831,9482 5857,9455 5888,9431 5889,9394 5875,9359 5848,9296 5799,9255 5725,9233 5704,9227 5678,9229 5656,9232 5582,9248 5546,9310 5584,9371 5616,9421 5657,9465 5724,9488 5749,9494 5756,9510 5762,9532 5784,9651 5834,9766 5882,9881 5932,10012 5986,10142 6068,10263 6071,10266 6067,10269 6067,10272 6062,10272 6059,10280 6059,10277 5951,10221 5839,10178 5741,10099 5645,10021 5537,9958 5433,9889 5364,9844 5296,9803 5242,9745 5225,9723 5214,9701 5212,9672 5213,9554 5235,9442 5262,9328 5313,9108 5182,8885 4983,8781 4775,8671 4562,8559 4336,8476 4263,8447 4186,8433 4114,8412 4100,8407 4085,8407 4073,8407 4032,8406 4018,8427 4035,8460 4066,8512 4094,8561 4132,8602 4246,8719 4359,8827 4477,8937 4537,8991 4610,9039 4679,9088 4749,9135 4807,9189 4852,9261 4894,9325 4933,9389 4978,9460 4958,9457 4948,9452 4937,9452 4933,9480 4947,9492 4965,9507 5011,9547 5045,9594 5081,9646 5137,9733 5210,9809 5300,9871 5332,9891 5361,9918 5390,9939 5386,9942 5383,9949 5379,9952 5313,9928 5248,9904 5186,9872 5122,9840 5057,9809 4991,9773 4933,9736 4877,9699 4822,9658 4727,9576 4614,9508 4499,9449 4467,9430 4438,9414 4412,9390 4324,9294 4240,9200 4155,9101 4137,9079 4127,9054 4110,9028 4122,9017 4132,9007 4144,8998 4163,8978 4167,8955 4164,8932 4152,8857 4053,8775 3968,8777 3928,8776 3887,8788 3859,8818 3821,8861 3819,8922 3865,8959 3894,8979 3930,8997 3962,9007 4003,9018 4036,9031 4057,9062 4137,9180 4255,9274 4350,9378 4358,9389 4368,9398 4372,9417 4349,9412 4328,9409 4305,9397 4179,9349 4052,9292 3924,9247 3809,9206 3688,9167 3568,9126 3526,9113 3476,9112 3433,9111 3318,9109 3208,9113 3094,9118 2863,9127 2644,9180 2435,9271 2311,9323 2193,9373 2061,9405 2025,9413 1988,9426 1953,9441 1943,9449 1927,9468 1930,9481 1933,9495 1951,9506 1965,9512 1980,9520 2003,9521 2021,9513 2169,9484 2313,9505 2455,9535 2630,9572 2807,9571 2986,9557 3103,9550 3211,9518 3306,9450 3394,9385 3497,9361 3601,9335 3620,9332 3643,9325 3661,9319 3713,9300 3769,9298 3823,9313 3921,9338 4020,9366 4118,9394 4165,9409 4209,9420 4256,9433 4479,9505 4678,9612 4864,9742 4982,9825 5102,9896 5234,9956 5104,9921 4972,9891 4845,9852 4750,9824 4663,9782 4572,9746 4475,9709 4372,9676 4266,9668 4185,9664 4104,9668 4026,9698 3862,9755 3702,9811 3537,9868 3444,9900 3361,9951 3285,10012 3214,10068 3132,10112 3056,10165 3052,10168 3047,10168 3044,10171 3037,10182 3021,10197 3024,10203 3027,10214 3045,10228 3056,10228 3130,10234 3204,10246 3273,10242 3369,10237 3461,10236 3557,10234 3675,10233 3797,10228 3915,10210 4004,10195 4094,10162 4180,10128 4285,10087 4396,10064 4507,10040 4570,10027 4630,10013 4692,10011 4798,10002 4905,10001 5012,10017 5062,10024 5111,10031 5162,10032 5243,10033 5320,10044 5396,10081 5545,10142 5693,10199 5842,10259 5878,10273 5915,10283 5951,10293 6021,10311 6074,10349 6138,10400 6114,10393 6099,10388 6088,10384 6073,10380 6059,10372 6044,10366 5973,10337 5899,10326 5821,10332 5762,10333 5703,10338 5645,10342 5600,10344 5563,10335 5528,10310 5495,10288 5460,10272 5422,10260 5375,10250 5333,10267 5304,10301 5273,10338 5278,10374 5300,10413 5345,10489 5431,10518 5510,10475 5540,10460 5559,10427 5590,10393 5716,10389 5852,10382 5988,10405 6036,10412 6074,10436 6118,10457 6179,10487 6246,10519 6302,10557 6345,10586 6389,10619 6424,10652 6520,10751 6615,10858 6707,10960 6712,10963 6715,10966 6726,10977 6630,10958 6550,10938 6474,10902 6373,10853 6262,10837 6149,10812 5937,10765 5725,10771 5510,10790 5454,10797 5399,10799 5348,10798 5230,10799 5115,10817 5004,10858 4980,10867 4950,10871 4929,10880 4910,10887 4887,10896 4898,10919 4904,10939 4923,10944 4941,10937 5142,10891 5331,10952 5517,10998 5626,11022 5732,11063 5841,11088 5915,11106 5987,11117 6061,11124 6141,11132 6215,11124 6294,11099 6409,11061 6527,11052 6646,11054 6674,11055 6711,11066 6735,11081 6910,11176 7048,11302 7176,11442 7208,11480 7231,11520 7259,11561 7256,11564 7256,11567 7252,11572 7175,11556 7102,11541 7025,11524 6971,11509 6913,11495 6857,11477 6836,11470 6819,11459 6804,11445 6772,11419 6735,11400 6691,11393 6622,11381 6573,11422 6574,11484 6575,11549 6603,11603 6664,11637 6725,11670 6770,11666 6816,11613 6820,11610 6823,11607 6835,11597 6868,11603 6905,11615 6941,11625 7006,11640 7068,11658 7133,11670 7204,11683 7265,11708 7315,11752 7332,11769 7361,11782 7379,11801 7393,11814 7407,11831 7415,11848 7456,11941 7518,12043 7565,12141 7615,12325 7724,12531 7930,12753 7727,12843 7506,12946 7277,13079 7071,13198 6967,13328 6954,13468 6929,13738 7265,14002 7655,14305 8217,14743 8854,15244 8594,15898 8432,16312 8176,16576 7833,16681 7802,16608 7769,16533 7731,16460 7248,15489 6747,15369 6493,15380 6201,15396 5999,15600 5926,15793 5851,15995 5907,16197 6071,16323 6401,16569 7124,16940 7774,16788 7941,17239 7927,17596 7730,17860 7347,18372 6392,18344 6381,18343 L 6377,18427 6392,18427 C 6527,18429 7419,18427 7806,17908 8019,17624 8038,17240 7863,16766 8232,16650 8508,16370 8682,15929 8961,15219 8272,14681 7717,14246 7361,13969 7025,13706 7045,13479 7053,13365 7146,13260 7326,13155 7559,13021 7787,12917 7993,12823 8093,12922 8214,13028 8357,13135 9411,13909 10356,14535 11307,14595 11007,14801 10633,15423 10566,17240 L 10658,17241 C 10727,15373 11126,14826 11357,14667 11406,14631 11455,14612 11491,14601 11964,14598 12440,14446 12935,14100 13876,13445 13982,13168 14193,12613 14328,12260 14512,11782 15008,11010 15770,9820 15577,9225 15409,8703 15311,8549 15265,8412 15241,8263 Z M 11420,10463 C 11409,10452 11418,10426 11425,10409 11450,10360 11472,10334 11506,10324 11514,10321 11524,10322 11535,10322 11604,10323 11706,10382 11811,10441 11822,10446 11829,10449 11840,10457 11640,10487 11458,10507 11420,10463 Z M 12256,11631 C 12215,11668 12123,11675 11980,11657 11584,11599 11270,11623 11093,11651 11256,11522 11573,11317 11922,11323 12040,11325 12164,11352 12287,11411 12301,11515 12302,11595 12256,11631 Z M 11654,4498 C 11661,4498 11658,4498 11654,4498 Z M 12161,5316 C 12166,5316 12169,5316 12172,5320 12164,5380 12153,5441 12139,5501 12118,5598 12085,5693 12066,5793 12044,5899 12001,5996 11942,6086 11926,6108 11910,6128 11892,6148 11758,6280 11589,6356 11397,6392 11311,6408 11223,6420 11137,6435 11104,6441 11074,6447 11041,6454 10888,6491 10751,6555 10612,6616 10597,6622 10585,6629 10570,6635 10632,6553 10712,6485 10803,6429 10840,6407 10877,6387 10912,6365 11029,6290 11148,6224 11280,6174 11417,6122 11563,6091 11710,6068 11728,6065 11755,6065 11774,6041 11637,6042 11518,6090 11390,6102 11445,6063 11506,6028 11562,5991 11567,5991 11570,5991 11570,5988 11597,5976 11622,5963 11646,5946 11671,5931 11695,5910 11717,5892 11823,5809 11929,5727 12003,5617 12050,5549 12089,5480 12122,5403 12137,5373 12150,5344 12161,5316 Z M 10743,6351 C 10829,6221 10932,6111 11060,6016 11114,5976 11170,5940 11227,5912 11306,5873 11391,5844 11470,5805 11567,5761 11675,5726 11766,5664 11891,5580 12005,5488 12096,5372 12108,5360 12120,5346 12127,5333 12069,5532 11888,5767 11749,5827 11776,5795 11802,5765 11826,5736 11883,5659 11883,5659 11881,5632 11878,5637 11869,5637 11869,5640 11815,5733 11735,5807 11662,5891 11647,5909 11623,5925 11601,5939 11510,5993 11416,6048 11322,6101 11263,6137 11200,6166 11134,6198 11101,6214 11064,6229 11015,6253 11088,6157 11173,6078 11225,5978 11216,5984 11213,5991 11206,5998 11135,6077 11070,6156 11004,6235 10973,6275 10936,6305 10891,6331 10812,6378 10726,6417 10656,6476 L 10647,6476 C 10681,6436 10712,6394 10743,6351 Z M 10099,4949 C 10132,5017 10178,5078 10235,5129 10339,5221 10443,5313 10546,5404 10604,5456 10652,5517 10679,5587 10699,5634 10712,5681 10728,5729 10749,5789 10757,5853 10754,5921 10746,6058 10726,6193 10677,6327 10653,6396 10614,6461 10574,6529 10586,6435 10595,6345 10602,6251 10604,6202 10599,6151 10598,6104 10598,6091 10594,6074 10594,6061 10605,6004 10622,5947 10630,5894 10640,5844 10649,5798 10659,5747 10659,5741 10656,5730 10656,5724 L 10645,5724 C 10615,5818 10605,5918 10568,6014 10555,5976 10536,5940 10531,5903 10505,5799 10458,5704 10387,5619 10376,5605 10367,5585 10362,5566 10357,5524 10356,5484 10357,5449 10359,5398 10361,5344 10348,5294 10322,5374 10339,5455 10324,5535 10302,5503 10285,5471 10272,5436 10244,5373 10222,5306 10172,5251 10140,5213 10127,5174 10114,5126 10108,5098 10101,5074 10087,5049 10067,5008 10065,4965 10064,4919 10085,4925 10091,4934 10099,4949 Z M 10454,5798 C 10451,5798 10451,5801 10446,5801 10443,5790 10440,5781 10437,5771 10440,5776 10446,5787 10454,5798 Z M 10423,6145 C 10401,6052 10353,5966 10296,5881 10244,5800 10196,5716 10151,5632 10117,5568 10090,5499 10059,5436 10027,5375 10008,5316 10002,5248 9998,5180 9997,5110 10000,5044 10002,4996 10007,4947 10012,4901 10023,4907 10026,4915 10026,4921 10035,4981 10051,5037 10082,5095 10090,5106 10089,5120 10092,5132 10105,5174 10119,5213 10150,5247 10176,5277 10193,5308 10203,5344 10224,5439 10262,5529 10328,5609 10345,5628 10364,5650 10378,5670 10399,5700 10412,5729 10429,5763 10377,5710 10323,5652 10274,5597 10220,5539 10171,5481 10117,5426 10114,5440 10116,5454 10124,5465 10159,5515 10195,5566 10241,5607 10265,5626 10290,5651 10316,5673 10408,5768 10463,5877 10513,5989 10541,6049 10560,6112 10557,6173 10554,6273 10543,6374 10532,6471 10523,6531 10491,6587 10459,6644 10460,6630 10460,6616 10464,6602 10483,6504 10491,6407 10465,6306 10456,6253 10436,6199 10423,6145 Z M 7156,4977 C 7153,4977 7150,4977 7156,4977 Z M 6422,6216 C 6541,6388 6697,6529 6870,6654 6995,6748 7145,6800 7285,6873 7397,6933 7517,6978 7625,7040 7707,7085 7783,7140 7855,7197 8030,7341 8171,7512 8282,7700 8319,7764 8358,7830 8400,7895 L 8385,7895 C 8293,7804 8174,7745 8066,7670 8005,7629 7954,7582 7913,7524 7826,7405 7734,7286 7647,7167 7639,7156 7633,7147 7621,7137 7685,7285 7796,7400 7893,7542 7828,7508 7778,7486 7728,7460 7641,7411 7551,7363 7464,7307 7335,7226 7205,7142 7080,7056 7051,7036 7022,7009 6998,6981 6899,6863 6796,6747 6724,6609 6721,6605 6713,6602 6710,6599 6705,6638 6705,6642 6778,6750 6809,6797 6844,6841 6880,6889 6684,6795 6447,6443 6384,6152 6394,6180 6408,6195 6422,6216 Z M 8444,8091 C 8248,7993 8055,7889 7840,7828 7796,7815 7748,7805 7701,7796 7577,7772 7452,7752 7327,7722 7054,7663 6823,7537 6638,7343 6614,7315 6592,7282 6572,7251 6496,7117 6439,6974 6421,6822 6406,6675 6369,6536 6345,6395 6330,6308 6327,6222 6315,6135 6318,6135 6325,6131 6330,6131 6343,6171 6360,6211 6373,6252 6409,6362 6461,6468 6520,6569 6616,6730 6763,6850 6906,6978 6938,7005 6970,7034 7005,7058 7037,7082 7075,7103 7110,7125 7113,7128 7118,7128 7121,7128 7200,7182 7282,7238 7362,7296 7178,7276 7012,7199 6813,7189 6841,7220 6874,7221 6904,7226 7113,7272 7316,7326 7516,7406 7704,7481 7870,7585 8027,7699 8078,7734 8128,7769 8183,7802 8308,7888 8411,7990 8494,8115 8479,8108 8462,8100 8444,8091 Z M 8480,6795 L 8465,6794 C 8462,6808 8458,6817 8457,6831 8466,6903 8473,6975 8482,7046 8494,7125 8506,7209 8518,7291 8520,7309 8513,7329 8512,7349 8502,7420 8489,7494 8490,7564 8488,7696 8495,7832 8500,7965 8452,7867 8405,7774 8376,7668 8320,7474 8304,7276 8308,7076 8309,6981 8330,6892 8366,6803 8395,6736 8419,6665 8454,6601 8502,6500 8580,6415 8666,6343 8826,6216 8985,6088 9145,5961 9236,5890 9308,5803 9365,5707 9375,5689 9387,5670 9406,5655 9400,5718 9390,5782 9360,5841 9339,5878 9327,5913 9315,5950 9294,6013 9269,6077 9219,6126 9147,6205 9103,6298 9060,6390 9035,6440 9007,6486 8972,6529 8962,6413 8989,6296 8964,6178 8943,6252 8940,6326 8934,6399 8932,6456 8922,6513 8913,6569 8907,6596 8891,6625 8872,6644 8761,6763 8684,6899 8634,7049 8617,7101 8589,7155 8565,7207 8517,7076 8513,6933 8480,6795 Z M 8787,6876 C 8780,6890 8776,6908 8767,6919 8764,6916 8760,6916 8756,6914 8767,6903 8776,6890 8787,6876 Z M 8650,8085 C 8654,8101 8657,8122 8653,8141 8615,8060 8570,7980 8565,7889 8555,7744 8554,7600 8559,7457 8563,7364 8599,7275 8643,7193 8727,7029 8820,6873 8961,6746 8998,6715 9037,6680 9078,6651 9154,6595 9208,6524 9263,6451 9275,6437 9279,6419 9277,6397 9196,6477 9116,6559 9036,6637 8955,6717 8870,6796 8790,6870 8818,6827 8846,6781 8877,6739 8900,6710 8927,6678 8953,6649 9057,6541 9121,6411 9163,6276 9179,6222 9207,6177 9245,6134 9292,6084 9318,6027 9340,5971 9347,5954 9348,5935 9360,5918 9408,5839 9440,5755 9462,5669 9465,5658 9469,5650 9484,5640 9485,5709 9490,5777 9488,5848 9484,5947 9472,6044 9462,6144 9450,6241 9414,6327 9363,6412 9312,6506 9264,6597 9210,6691 9135,6810 9058,6932 8973,7048 8883,7166 8804,7285 8763,7422 8739,7500 8706,7578 8677,7657 8631,7796 8634,7940 8650,8085 Z M 6976,9379 C 6966,9336 6961,9288 6943,9244 6877,9056 6923,8881 7016,8698 7019,8709 7022,8715 7022,8718 7004,8932 7021,9142 7057,9355 7064,9390 7063,9430 7065,9472 7027,9380 7016,9283 6968,9195 6972,9253 6985,9307 6998,9360 7011,9414 7027,9468 7025,9522 6997,9480 6986,9429 6976,9379 Z M 6540,9893 C 6509,9846 6485,9800 6450,9760 6393,9704 6351,9640 6305,9571 6260,9504 6237,9429 6233,9349 6223,9210 6214,9071 6200,8935 6201,8927 6204,8921 6205,8912 6262,8971 6295,9040 6323,9107 6350,9170 6377,9234 6408,9300 6424,9340 6446,9379 6459,9422 6481,9494 6490,9567 6502,9642 6499,9642 6495,9645 6490,9645 6460,9574 6430,9504 6399,9435 6396,9435 6391,9440 6388,9440 6395,9463 6398,9483 6408,9506 6442,9584 6475,9660 6513,9738 6530,9786 6546,9836 6540,9893 Z M 5160,9294 C 5146,9360 5134,9426 5119,9506 5089,9430 5062,9362 5038,9293 5028,9264 5022,9231 5017,9196 5000,9126 4978,9062 4927,9007 4921,9001 4909,8995 4892,8985 4894,8997 4894,9004 4894,9007 4947,9182 5003,9353 5056,9530 5059,9541 5062,9552 5066,9565 5061,9568 5058,9568 5058,9573 5052,9559 5041,9545 5033,9529 4974,9428 4920,9330 4861,9228 4812,9146 4745,9083 4661,9027 4582,8975 4507,8916 4435,8855 4329,8760 4230,8661 4130,8562 4105,8540 4088,8507 4067,8482 4059,8471 4060,8461 4051,8437 4113,8455 4167,8466 4214,8485 4305,8519 4396,8553 4483,8596 4635,8669 4787,8739 4927,8824 5114,8932 5197,9091 5160,9294 Z M 3471,9263 C 3452,9265 3431,9264 3413,9267 3312,9270 3210,9268 3110,9272 3055,9274 3002,9287 2949,9300 2923,9306 2904,9323 2882,9336 2922,9329 2960,9310 2998,9303 3124,9280 3252,9300 3386,9291 3307,9336 3242,9383 3167,9417 3118,9441 3066,9466 3015,9471 2888,9486 2758,9496 2633,9489 2487,9479 2340,9445 2209,9427 2279,9390 2358,9348 2440,9314 2642,9228 2850,9178 3074,9165 3173,9159 3272,9159 3372,9158 3494,9153 3598,9188 3709,9226 3623,9238 3545,9251 3471,9263 Z M 4900,9953 C 4841,9946 4779,9945 4719,9950 4683,9954 4642,9945 4606,9938 4556,9930 4504,9910 4453,9906 4280,9889 4107,9906 3936,9946 3928,9949 3924,9954 3918,9955 3939,9954 3962,9955 3980,9950 4125,9922 4271,9915 4419,9924 4473,9928 4526,9940 4572,9966 4546,9973 4524,9977 4498,9980 4369,10000 4238,10021 4119,10073 4052,10103 3980,10125 3906,10143 3869,10155 3829,10157 3788,10160 3648,10168 3511,10186 3371,10174 3332,10170 3290,10179 3249,10181 3213,10185 3177,10187 3139,10187 3124,10186 3109,10178 3091,10172 3156,10127 3220,10085 3277,10042 3342,9993 3409,9949 3488,9921 3656,9861 3823,9801 3991,9744 4088,9713 4183,9710 4283,9732 4378,9754 4469,9788 4559,9823 4642,9856 4727,9883 4813,9913 4850,9923 4890,9933 4927,9941 4922,9953 4912,9953 4900,9953 Z M 6493,10995 C 6383,11000 6278,11021 6173,11054 6140,11062 6104,11066 6066,11069 5956,11068 5849,11048 5748,11015 5621,10979 5493,10944 5366,10909 5297,10891 5227,10879 5153,10861 L 5154,10854 C 5177,10852 5198,10849 5225,10845 5339,10838 5452,10829 5568,10820 5708,10815 5845,10799 5984,10825 6074,10840 6166,10856 6254,10877 6305,10888 6357,10899 6407,10930 6388,10935 6377,10940 6365,10943 6299,10952 6230,10957 6162,10967 6107,10972 6051,10977 5996,10986 5978,10990 5958,10999 5936,11006 5936,11009 5940,11012 5939,11015 6083,11004 6223,11011 6364,10983 6417,10975 6468,10968 6530,10986 6511,10992 6500,10995 6493,10995 Z M 6074,16252 C 5938,16151 5893,15985 5959,15812 6019,15646 6192,15475 6442,15461 L 6487,15462 C 6729,15466 7157,15621 7590,16490 7628,16566 7658,16634 7685,16703 7076,16843 6390,16490 6074,16252 Z M 9024,9941 C 8800,8830 8875,8091 9265,7618 9608,7200 10158,7037 10739,6865 10842,6834 10951,6802 11056,6770 12266,6391 12336,6202 12462,5860 12469,5837 12479,5810 12491,5788 12640,5399 12864,5142 13601,4912 14183,4728 14521,4604 14691,4424 14620,4749 14332,5376 13207,5710 12381,5955 12311,6333 12247,6692 12183,7038 12117,7399 11364,7687 10348,8068 9831,8431 9825,8755 9823,8943 9997,9104 10334,9233 10498,9295 10573,9375 10565,9481 10539,9802 9774,10265 9116,10522 9097,10341 9064,10149 9024,9941 Z M 7961,12714 C 7638,12372 7510,12026 7590,11700 7710,11203 8268,10851 8740,10731 8838,10707 8938,10676 9046,10639 9227,12125 8732,12366 7961,12714 Z M 15131,8149 C 15000,8103 14900,8030 14843,7986 14903,7970 14958,7949 15011,7926 15032,7951 15072,7981 15125,8011 15127,8057 15130,8105 15131,8149 Z M 15097,7884 C 15112,7873 15127,7868 15139,7859 15138,7877 15133,7895 15132,7914 15117,7904 15108,7895 15097,7884 Z M 12861,10406 C 13009,10409 13125,10434 13178,10498 13210,10536 13217,10556 13220,10564 13190,10574 13069,10566 12977,10559 12908,10553 12831,10546 12757,10545 12803,10508 12837,10461 12861,10406 Z M 12107,10496 C 12322,10458 12559,10416 12762,10407 12730,10459 12688,10497 12633,10518 12442,10599 12265,10565 12107,10496 Z M 14873,10960 C 14377,11739 14190,12225 14051,12576 13844,13114 13742,13383 12823,14025 12601,14180 12380,14295 12163,14373 12227,14325 12284,14265 12321,14194 12416,13998 12347,13756 12119,13475 11802,13087 11789,12917 11833,12840 11884,12755 12050,12744 12185,12746 L 12274,12748 12359,12749 C 12462,12748 12564,12704 12602,12641 12622,12607 12623,12570 12603,12541 12549,12464 12381,12436 12105,12453 11467,12495 11244,12244 11241,12240 L 11236,12238 C 11126,12139 11081,12058 11104,12015 11171,11890 11730,11929 12065,11952 12421,11974 12534,11981 12563,11924 12570,11912 12579,11884 12547,11854 12462,11766 12460,11731 12460,11728 12525,11740 12810,11791 13020,11709 13221,11629 13679,11704 13685,11704 L 13872,11735 13723,11627 C 12980,11106 12526,11232 12368,11312 12368,11302 12365,11295 12366,11285 12344,11151 12320,10997 12333,10835 12340,10770 12363,10724 12409,10693 12531,10601 12775,10621 12971,10638 13146,10655 13264,10663 13306,10601 13338,10552 13295,10489 13258,10446 13187,10361 13056,10328 12897,10322 12994,9993 12875,9438 12753,8862 12655,8399 12552,7917 12566,7560 12580,7170 12914,6855 13198,6663 13824,6232 14641,6037 14909,6096 15116,6143 15269,6201 15353,6337 15477,6540 15433,6924 15220,7534 15196,7605 15179,7671 15165,7734 14682,8150 13168,7952 13154,7949 L 13141,8032 C 13159,8036 13286,8052 13474,8066 13505,8113 13646,8308 13858,8447 L 13912,8377 C 13764,8280 13648,8148 13592,8071 13669,8076 13756,8080 13845,8082 L 13871,8083 C 13917,8147 14068,8339 14326,8426 L 14359,8345 C 14177,8283 14048,8155 13985,8082 14084,8080 14184,8079 14283,8070 14326,8131 14463,8277 14806,8367 L 14832,8287 C 14581,8222 14451,8122 14391,8061 14513,8049 14630,8033 14742,8004 14793,8051 14931,8171 15143,8232 15167,8398 15215,8550 15266,8710 15437,9252 15615,9803 14873,10960 Z "/>
       </g>
      </g>
     </g>
    </g>
   </g>
  </g>
 </g>
</svg>