<?xml version="1.0" encoding="UTF-8"?>
<!DOCTYPE svg PUBLIC "-//W3C//DTD SVG 1.1//EN" "http://www.w3.org/Graphics/SVG/1.1/DTD/svg11.dtd">
<svg version="1.2" width="181.38mm" height="211.66mm" viewBox="0 0 18138 21166" preserveAspectRatio="xMidYMid" fill-rule="evenodd" stroke-width="28.222" stroke-linejoin="round" xmlns="http://www.w3.org/2000/svg" xmlns:ooo="http://xml.openoffice.org/svg/export" xmlns:xlink="http://www.w3.org/1999/xlink" xmlns:presentation="http://sun.com/xmlns/staroffice/presentation" xmlns:smil="http://www.w3.org/2001/SMIL20/" xmlns:anim="urn:oasis:names:tc:opendocument:xmlns:animation:1.0" xmlns:svg="urn:oasis:names:tc:opendocument:xmlns:svg-compatible:1.0" xml:space="preserve">
 <defs class="ClipPathGroup">
  <clipPath id="presentation_clip_path" clipPathUnits="userSpaceOnUse">
   <rect x="0" y="0" width="18138" height="21166"/>
  </clipPath>
  <clipPath id="presentation_clip_path_shrink" clipPathUnits="userSpaceOnUse">
   <rect x="18" y="21" width="18102" height="21124"/>
  </clipPath>
 </defs>
 <defs class="TextShapeIndex">
  <g ooo:slide="id1" ooo:id-list="id3"/>
 </defs>
 <defs class="EmbeddedBulletChars">
  <g id="bullet-char-template-57356" transform="scale(0.00048828125,-0.00048828125)">
   <path d="M 580,1141 L 1163,571 580,0 -4,571 580,1141 Z"/>
  </g>
  <g id="bullet-char-template-57354" transform="scale(0.00048828125,-0.00048828125)">
   <path d="M 8,1128 L 1137,1128 1137,0 8,0 8,1128 Z"/>
  </g>
  <g id="bullet-char-template-10146" transform="scale(0.00048828125,-0.00048828125)">
   <path d="M 174,0 L 602,739 174,1481 1456,739 174,0 Z M 1358,739 L 309,1346 659,739 1358,739 Z"/>
  </g>
  <g id="bullet-char-template-10132" transform="scale(0.00048828125,-0.00048828125)">
   <path d="M 2015,739 L 1276,0 717,0 1260,543 174,543 174,936 1260,936 717,1481 1274,1481 2015,739 Z"/>
  </g>
  <g id="bullet-char-template-10007" transform="scale(0.00048828125,-0.00048828125)">
   <path d="M 0,-2 C -7,14 -16,27 -25,37 L 356,567 C 262,823 215,952 215,954 215,979 228,992 255,992 264,992 276,990 289,987 310,991 331,999 354,1012 L 381,999 492,748 772,1049 836,1024 860,1049 C 881,1039 901,1025 922,1006 886,937 835,863 770,784 769,783 710,716 594,584 L 774,223 C 774,196 753,168 711,139 L 727,119 C 717,90 699,76 672,76 641,76 570,178 457,381 L 164,-76 C 142,-110 111,-127 72,-127 30,-127 9,-110 8,-76 1,-67 -2,-52 -2,-32 -2,-23 -1,-13 0,-2 Z"/>
  </g>
  <g id="bullet-char-template-10004" transform="scale(0.00048828125,-0.00048828125)">
   <path d="M 285,-33 C 182,-33 111,30 74,156 52,228 41,333 41,471 41,549 55,616 82,672 116,743 169,778 240,778 293,778 328,747 346,684 L 369,508 C 377,444 397,411 428,410 L 1163,1116 C 1174,1127 1196,1133 1229,1133 1271,1133 1292,1118 1292,1087 L 1292,965 C 1292,929 1282,901 1262,881 L 442,47 C 390,-6 338,-33 285,-33 Z"/>
  </g>
  <g id="bullet-char-template-9679" transform="scale(0.00048828125,-0.00048828125)">
   <path d="M 813,0 C 632,0 489,54 383,161 276,268 223,411 223,592 223,773 276,916 383,1023 489,1130 632,1184 813,1184 992,1184 1136,1130 1245,1023 1353,916 1407,772 1407,592 1407,412 1353,268 1245,161 1136,54 992,0 813,0 Z"/>
  </g>
  <g id="bullet-char-template-8226" transform="scale(0.00048828125,-0.00048828125)">
   <path d="M 346,457 C 273,457 209,483 155,535 101,586 74,649 74,723 74,796 101,859 155,911 209,963 273,989 346,989 419,989 480,963 531,910 582,859 608,796 608,723 608,648 583,586 532,535 482,483 420,457 346,457 Z"/>
  </g>
  <g id="bullet-char-template-8211" transform="scale(0.00048828125,-0.00048828125)">
   <path d="M -4,459 L 1135,459 1135,606 -4,606 -4,459 Z"/>
  </g>
  <g id="bullet-char-template-61548" transform="scale(0.00048828125,-0.00048828125)">
   <path d="M 173,740 C 173,903 231,1043 346,1159 462,1274 601,1332 765,1332 928,1332 1067,1274 1183,1159 1299,1043 1357,903 1357,740 1357,577 1299,437 1183,322 1067,206 928,148 765,148 601,148 462,206 346,322 231,437 173,577 173,740 Z"/>
  </g>
 </defs>
 <g>
  <g id="id2" class="Master_Slide">
   <g id="bg-id2" class="Background"/>
   <g id="bo-id2" class="BackgroundObjects"/>
  </g>
 </g>
 <g class="SlideGroup">
  <g>
   <g id="container-id1">
    <g id="id1" class="Slide" clip-path="url(#presentation_clip_path)">
     <g class="Page">
      <g class="com.sun.star.drawing.ClosedBezierShape">
       <g id="id3">
        <rect class="BoundingBox" stroke="none" fill="none" x="2870" y="3822" width="11749" height="13337"/>
        <path fill="rgb(0,0,0)" stroke="none" d="M 14287,8074 C 14310,8078 14335,8084 14361,8084 L 14367,8011 C 14335,8008 14303,8001 14272,7996 14265,7960 14262,7925 14262,7887 14310,7901 14367,7913 14430,7913 14487,7913 14548,7905 14617,7887 L 14595,7816 C 14449,7857 14341,7841 14262,7808 14265,7698 14282,7584 14320,7455 14494,6885 14515,6540 14389,6340 14300,6199 14148,6143 13949,6101 13670,6044 12929,6269 12427,6640 12070,6905 11883,7202 11883,7496 11883,7819 11987,8243 12086,8653 12206,9143 12329,9650 12250,9920 12063,9930 11838,9973 11630,10014 11601,10021 11576,10026 11547,10033 11512,10014 11477,9995 11445,9976 11315,9906 11205,9844 11113,9872 11062,9887 11028,9930 10999,9995 10979,10045 10982,10086 11008,10114 11071,10185 11243,10164 11535,10109 11632,10156 11740,10200 11858,10212 11812,10253 11788,10308 11784,10376 11776,10528 11804,10674 11825,10791 11825,10793 11825,10797 11829,10800 11223,10560 10672,11153 10666,11159 L 10574,11258 10707,11217 C 10710,11217 11059,11112 11576,11179 11730,11201 11825,11184 11883,11131 11943,11077 11940,10989 11924,10879 11997,10831 12317,10676 12909,11032 12770,11020 12570,11017 12450,11070 12278,11144 12012,11091 12009,11091 L 12004,11091 11997,11091 C 11975,11093 11943,11108 11930,11138 11914,11179 11937,11232 12004,11303 11937,11308 11794,11300 11674,11293 11205,11270 10841,11265 10774,11408 10739,11479 10787,11570 10913,11684 10935,11711 11156,11930 11730,11882 12035,11855 12086,11911 12089,11918 12091,11920 12091,11923 12089,11933 12073,11958 12016,11991 11950,11991 L 11883,11991 C 11734,11987 11509,11982 11433,12117 11363,12244 11455,12450 11705,12748 11892,12970 11955,13155 11892,13303 11794,13523 11433,13596 11341,13615 11335,13615 11325,13615 11319,13617 11300,13615 11268,13615 11223,13622 10369,13653 9500,13102 8521,12403 8410,12324 8309,12240 8223,12158 8876,11842 9323,11592 9111,10228 9696,9992 10374,9544 10390,9218 10397,9092 10308,8997 10134,8931 9867,8836 9731,8721 9728,8588 9721,8343 10162,8024 10971,7693 11651,7414 11702,7057 11746,6746 11791,6434 11832,6139 12491,5925 13857,5479 13793,4520 13793,4511 L 13772,4258 13714,4508 C 13664,4731 13429,4849 12747,5081 12089,5308 11896,5548 11771,5916 11766,5941 11756,5960 11750,5984 11658,6267 11607,6420 10615,6761 10526,6790 10435,6818 10346,6849 10261,6878 10172,6905 10090,6935 10115,6902 10136,6868 10156,6837 10187,6787 10226,6742 10285,6716 10394,6666 10498,6610 10618,6578 10654,6570 10688,6560 10726,6555 10863,6534 10999,6509 11125,6451 11154,6439 11182,6423 11212,6408 11223,6401 11233,6389 11246,6385 11360,6310 11433,6208 11477,6089 11494,6045 11502,5999 11512,5952 11535,5848 11556,5748 11579,5646 11589,5599 11589,5552 11591,5505 11591,5495 11594,5487 11591,5479 11584,5467 11579,5452 11569,5449 11560,5445 11543,5452 11535,5460 11512,5485 11489,5508 11471,5533 11414,5616 11343,5687 11266,5752 11202,5802 11135,5853 11056,5887 10979,5919 10907,5960 10833,5997 10771,6025 10710,6058 10656,6098 10564,6170 10482,6246 10416,6337 10387,6378 10356,6420 10328,6464 10336,6431 10343,6399 10352,6366 10372,6355 10377,6335 10384,6313 10406,6246 10431,6177 10451,6111 10467,6044 10502,5984 10549,5934 10584,5899 10628,5870 10672,5836 10758,5775 10853,5734 10958,5705 10986,5696 11015,5684 11046,5672 11066,5666 11081,5657 11100,5653 11110,5660 11115,5666 11125,5676 11176,5717 11240,5707 11274,5656 11281,5646 11287,5634 11290,5626 11297,5611 11302,5599 11319,5590 11348,5571 11353,5555 11343,5540 11331,5520 11312,5520 11290,5527 L 11277,5527 C 11243,5495 11202,5464 11148,5487 11087,5514 11087,5565 11091,5622 11040,5641 10986,5664 10933,5679 10815,5714 10707,5757 10612,5834 10597,5846 10580,5858 10559,5867 10605,5779 10634,5681 10713,5611 10777,5555 10841,5498 10910,5455 10992,5402 11081,5372 11173,5343 11240,5322 11307,5296 11376,5271 11448,5250 11518,5226 11584,5190 11601,5182 11614,5182 11625,5195 11635,5205 11642,5212 11651,5220 11689,5245 11734,5240 11759,5202 11776,5182 11784,5157 11800,5138 11807,5129 11817,5119 11822,5114 11842,5096 11845,5076 11835,5057 11822,5040 11807,5035 11776,5040 11763,5043 11746,5043 11730,5040 11699,5035 11668,5038 11638,5053 11591,5073 11576,5107 11584,5157 11535,5184 11484,5199 11433,5217 11348,5243 11261,5267 11176,5293 11115,5312 11056,5334 10995,5355 10920,5381 10853,5419 10797,5472 10774,5493 10754,5510 10733,5528 10730,5527 10726,5527 10726,5527 L 10726,5523 C 10761,5452 10797,5379 10833,5308 10853,5271 10875,5240 10900,5207 10945,5154 10989,5104 11036,5053 11053,5055 11066,5057 11079,5057 11122,5061 11154,5046 11166,5008 11176,4985 11192,4973 11217,4967 11253,4958 11287,4949 11322,4943 11436,4920 11550,4896 11664,4876 11717,4867 11771,4854 11829,4852 11870,4849 11909,4835 11943,4816 11991,4793 12040,4769 12086,4747 12094,4750 12099,4750 12101,4753 12181,4808 12278,4769 12298,4678 12304,4649 12301,4623 12327,4599 12342,4587 12335,4564 12320,4549 12304,4535 12276,4528 12257,4539 12247,4546 12237,4558 12227,4566 12101,4566 12076,4592 12083,4723 12066,4728 12050,4738 12038,4743 11943,4797 11838,4826 11725,4838 11617,4849 11512,4876 11407,4892 11335,4905 11261,4917 11186,4928 11169,4909 11173,4890 11192,4873 11212,4854 11230,4838 11249,4819 11297,4776 11343,4735 11389,4690 11436,4647 11489,4609 11550,4576 11556,4579 11563,4581 11572,4584 11651,4617 11727,4576 11722,4494 11717,4454 11734,4435 11763,4413 11829,4364 11902,4325 11987,4302 12070,4281 12152,4258 12225,4217 12235,4211 12247,4213 12260,4217 12307,4232 12348,4217 12389,4201 12427,4188 12440,4152 12440,4113 12440,4090 12440,4069 12465,4052 12485,4041 12481,4011 12465,3996 12450,3981 12424,3981 12406,3996 12399,4001 12393,4011 12386,4018 12361,4014 12335,4011 12314,4011 12257,4014 12227,4041 12225,4097 12225,4122 12222,4152 12219,4185 12199,4188 12181,4190 12165,4196 12079,4220 11997,4246 11912,4273 11879,4281 11851,4299 11822,4314 11771,4344 11725,4375 11676,4405 11556,4382 11502,4425 11518,4538 11515,4539 11512,4546 11505,4549 11474,4571 11443,4590 11404,4614 11407,4599 11407,4590 11410,4584 11445,4485 11477,4382 11518,4284 11553,4208 11604,4137 11648,4064 11655,4056 11671,4049 11681,4046 11702,4041 11727,4041 11750,4031 11797,4014 11819,3970 11807,3923 11800,3901 11794,3885 11807,3863 11819,3841 11791,3813 11768,3825 11740,3837 11715,3832 11686,3834 11607,3844 11560,3951 11604,4014 11610,4023 11620,4031 11630,4044 11614,4067 11601,4094 11581,4117 11518,4198 11474,4289 11436,4384 11402,4473 11356,4561 11331,4652 11315,4705 11281,4743 11243,4778 11220,4799 11195,4823 11173,4842 11161,4831 11154,4814 11141,4811 11128,4808 11115,4823 11094,4831 10999,4826 10948,4882 10974,4968 10979,4993 10999,5016 11012,5046 10977,5091 10935,5138 10892,5190 10879,5154 10879,5126 10882,5096 10897,4945 10920,4797 10933,4643 10945,4520 10986,4405 11025,4287 11033,4255 11049,4226 11062,4194 L 11091,4194 C 11148,4196 11182,4175 11199,4125 11202,4113 11205,4102 11205,4087 11205,4056 11199,4023 11217,3991 11227,3976 11217,3958 11199,3946 11179,3935 11156,3935 11145,3949 11125,3973 11100,3973 11074,3976 11033,3980 11012,4001 10999,4037 10982,4090 10992,4117 11036,4178 11015,4238 10992,4296 10971,4356 10913,4501 10887,4655 10875,4808 10869,4892 10853,4975 10841,5061 10838,5091 10831,5123 10833,5152 10833,5179 10831,5202 10821,5226 10802,5267 10780,5305 10777,5353 10777,5366 10764,5381 10758,5399 10754,5396 10751,5394 10751,5394 10764,5293 10743,5195 10730,5099 10707,4955 10679,4814 10656,4670 10654,4659 10654,4649 10654,4637 10739,4590 10761,4496 10666,4435 10666,4425 10669,4416 10669,4409 10669,4384 10654,4367 10628,4367 10605,4364 10584,4375 10580,4399 10577,4420 10571,4435 10556,4450 10549,4454 10543,4466 10543,4475 10549,4513 10552,4554 10564,4592 10574,4621 10603,4630 10634,4637 10638,4649 10641,4664 10644,4675 10669,4849 10692,5023 10720,5195 10736,5293 10726,5388 10707,5482 10685,5599 10615,5699 10564,5808 10561,5714 10564,5616 10559,5523 10552,5429 10539,5334 10510,5243 10520,5237 10530,5231 10539,5226 10584,5195 10593,5134 10556,5096 10543,5081 10530,5069 10518,5055 10508,5046 10501,5035 10498,5025 10492,5008 10482,4993 10464,4993 10444,4993 10435,5005 10425,5019 10418,5031 10406,5040 10397,5050 10362,5066 10333,5088 10331,5129 10331,5169 10359,5193 10393,5214 10400,5217 10410,5224 10418,5226 10476,5233 10492,5275 10501,5319 10513,5379 10520,5434 10530,5493 10549,5599 10543,5705 10536,5810 10533,5858 10523,5903 10498,5944 10479,5979 10467,6017 10454,6055 10435,6113 10413,6173 10393,6234 10406,6155 10413,6073 10393,5994 10362,5843 10308,5705 10178,5599 10093,5528 10016,5452 9937,5379 9893,5338 9862,5290 9836,5240 9811,5184 9779,5131 9734,5088 9731,5081 9726,5078 9721,5073 9700,5050 9690,5050 9662,5069 9662,5073 9659,5076 9662,5076 9690,5169 9662,5265 9672,5357 9677,5399 9675,5442 9675,5485 9677,5565 9696,5637 9734,5707 9760,5757 9779,5810 9808,5858 9846,5931 9883,6007 9931,6075 9985,6155 10029,6234 10054,6328 10067,6385 10087,6437 10100,6494 10115,6555 10111,6616 10102,6681 10100,6714 10093,6746 10090,6777 10080,6843 10057,6906 10029,6969 10026,6973 10026,6978 10026,6981 9401,7202 8866,7507 8796,8406 8755,8320 8727,8232 8714,8140 8708,8093 8701,8046 8691,7998 8680,7907 8676,7816 8696,7728 8714,7648 8740,7569 8762,7490 8796,7357 8863,7241 8939,7125 9006,7026 9063,6916 9119,6809 9158,6737 9186,6661 9224,6590 9278,6487 9306,6378 9311,6263 9311,6202 9306,6139 9316,6079 9332,5941 9291,5802 9332,5666 9332,5664 9332,5660 9329,5656 9285,5626 9275,5626 9240,5660 9234,5666 9227,5676 9221,5681 9158,5745 9114,5823 9075,5903 9037,5979 8990,6045 8929,6105 8812,6214 8701,6325 8578,6426 8394,6578 8312,6780 8268,6995 8242,7111 8252,7228 8268,7342 8240,7257 8211,7173 8181,7087 8163,7031 8147,6976 8115,6923 8081,6862 8065,6799 8061,6731 8053,6578 8043,6426 8071,6272 8084,6189 8096,6105 8112,6022 8125,5958 8147,5896 8232,5884 8245,5881 8255,5874 8268,5870 8319,5840 8360,5805 8360,5745 8360,5687 8315,5657 8265,5631 8248,5622 8232,5608 8223,5590 8211,5570 8198,5552 8169,5555 8138,5558 8125,5576 8119,5603 8112,5616 8104,5631 8091,5646 8071,5666 8053,5684 8033,5705 7983,5760 7994,5848 8058,5893 8071,5903 8084,5908 8096,5916 8053,6048 8037,6184 8027,6322 8017,6461 8020,6599 8017,6737 7948,6582 7846,6437 7812,6267 7786,6128 7771,5994 7792,5853 7830,5603 7866,5350 7904,5096 7907,5076 7912,5057 7917,5040 7960,5028 8004,5013 8017,4975 8033,4920 8040,4861 8048,4804 8048,4793 8040,4776 8030,4766 8004,4747 7994,4723 7992,4693 7989,4664 7958,4647 7925,4649 7891,4652 7868,4675 7868,4710 7868,4725 7871,4738 7874,4750 7735,4835 7771,4975 7894,5040 7891,5055 7891,5069 7887,5088 7853,5293 7812,5502 7779,5707 7758,5848 7725,5991 7745,6134 7745,6136 7742,6139 7735,6143 7725,6120 7710,6098 7707,6075 7700,6007 7669,5952 7643,5893 7628,5858 7622,5825 7625,5786 7628,5743 7622,5699 7615,5656 7599,5533 7577,5410 7564,5290 7545,5066 7507,4846 7425,4634 7394,4549 7361,4463 7330,4378 7397,4287 7405,4249 7384,4175 7368,4122 7333,4090 7276,4084 7238,4082 7203,4082 7174,4046 7156,4023 7123,4025 7099,4044 7074,4059 7061,4084 7074,4106 7099,4152 7092,4198 7092,4246 7092,4264 7099,4281 7102,4299 7123,4372 7174,4405 7256,4399 7269,4399 7282,4399 7297,4397 7317,4444 7336,4488 7351,4535 7409,4705 7469,4873 7484,5050 7507,5267 7535,5485 7558,5705 7564,5745 7561,5790 7545,5840 7482,5764 7425,5696 7371,5634 7394,5593 7418,5561 7428,5527 7466,5402 7390,5319 7254,5328 7225,5313 7203,5296 7187,5300 7169,5303 7159,5328 7140,5346 7105,5313 7074,5281 7038,5252 6982,5199 6931,5149 6908,5069 6867,4937 6807,4811 6756,4685 6700,4549 6636,4416 6544,4299 6518,4268 6497,4228 6477,4194 6493,4175 6506,4163 6515,4152 6579,4064 6510,3908 6395,3894 6354,3887 6316,3894 6275,3879 6239,3863 6202,3901 6218,3935 6236,3968 6224,3993 6215,4020 6195,4090 6228,4152 6300,4178 6331,4190 6367,4190 6402,4198 6418,4201 6443,4211 6449,4223 6513,4327 6585,4428 6636,4539 6700,4681 6744,4831 6795,4975 6797,4987 6797,5000 6800,5019 6746,4985 6700,4955 6654,4924 6649,4917 6642,4911 6636,4909 6659,4750 6579,4681 6405,4716 6338,4672 6269,4625 6195,4584 6154,4561 6113,4538 6069,4523 5949,4485 5824,4450 5704,4413 5680,4405 5650,4402 5626,4397 5622,4349 5619,4311 5616,4270 5613,4194 5568,4152 5486,4150 5452,4150 5416,4155 5381,4158 5372,4150 5362,4137 5352,4129 5324,4106 5290,4106 5265,4129 5242,4150 5235,4190 5265,4211 5299,4235 5301,4264 5301,4299 5301,4352 5318,4402 5375,4425 5435,4450 5495,4470 5565,4447 5580,4440 5600,4440 5613,4447 5721,4504 5837,4539 5957,4571 6078,4602 6185,4659 6285,4731 6326,4761 6347,4791 6344,4846 6338,4964 6449,5025 6564,4978 6572,4975 6582,4968 6592,4967 6677,5012 6756,5066 6826,5131 6892,5195 6962,5255 7028,5319 7057,5346 7082,5372 7110,5399 7140,5426 7143,5449 7120,5479 7013,5460 6905,5445 6800,5429 6646,5402 6493,5364 6341,5350 6177,5334 6028,5293 5888,5214 5867,5202 5844,5193 5821,5182 5831,5000 5793,4958 5609,4958 5596,4945 5583,4930 5568,4920 5539,4902 5501,4909 5480,4930 5457,4952 5447,4985 5470,5002 5508,5035 5501,5076 5511,5116 5537,5250 5682,5305 5793,5224 5796,5220 5803,5220 5816,5217 5882,5250 5952,5281 6021,5316 6072,5343 6126,5360 6185,5366 6265,5376 6344,5388 6423,5402 6588,5434 6756,5467 6921,5502 6972,5510 7023,5527 7074,5537 7108,5546 7133,5565 7146,5599 7164,5656 7212,5676 7276,5669 7295,5666 7314,5664 7336,5660 7402,5737 7469,5810 7533,5887 7568,5931 7599,5982 7628,6032 7681,6134 7732,6240 7783,6344 L 7783,6348 C 7783,6348 7779,6351 7773,6355 7745,6328 7713,6302 7681,6272 7599,6196 7504,6136 7394,6101 7305,6073 7220,6044 7130,6013 7007,5975 6882,5941 6759,5903 6684,5878 6608,5855 6538,5817 6554,5743 6528,5694 6462,5664 6421,5643 6377,5641 6328,5649 6310,5653 6287,5653 6265,5646 6224,5637 6195,5643 6180,5669 6164,5696 6170,5725 6198,5752 6211,5764 6224,5772 6234,5786 6256,5817 6272,5848 6293,5881 6331,5937 6395,5946 6452,5908 6464,5899 6477,5887 6490,5874 6510,5858 6525,5855 6547,5867 6642,5919 6746,5952 6851,5987 6949,6020 7045,6058 7143,6089 7276,6134 7405,6177 7526,6256 7630,6322 7722,6401 7812,6481 7925,6582 7966,6723 8037,6852 8007,6840 7983,6825 7960,6809 7824,6699 7666,6635 7494,6585 7415,6560 7343,6528 7266,6502 7269,6420 7269,6346 7184,6308 7105,6272 7048,6320 6994,6360 6984,6360 6982,6360 6979,6358 6946,6346 6918,6348 6899,6378 6882,6401 6892,6428 6933,6451 6956,6464 6966,6481 6974,6502 6982,6517 6987,6532 6997,6547 7048,6623 7143,6635 7215,6575 7228,6566 7238,6555 7251,6542 7276,6552 7302,6563 7327,6572 7368,6587 7409,6608 7453,6620 7602,6663 7742,6720 7866,6811 7925,6855 7992,6900 8043,6951 8112,7023 8160,7107 8186,7205 8211,7304 8245,7402 8281,7503 8289,7528 8299,7557 8325,7579 8337,7626 8350,7672 8360,7720 8315,7655 8271,7595 8230,7534 8135,7402 8014,7291 7884,7190 7805,7131 7717,7084 7625,7042 7517,6991 7412,6931 7305,6885 7190,6837 7095,6764 7003,6689 6889,6599 6787,6496 6705,6375 6680,6337 6649,6302 6613,6269 6605,6259 6579,6249 6564,6252 6551,6256 6538,6278 6531,6294 6525,6305 6528,6320 6528,6332 6534,6399 6534,6470 6547,6537 6575,6685 6608,6830 6642,6981 6659,7049 6671,7117 6695,7181 6762,7355 6867,7503 7033,7607 7051,7619 7064,7634 7082,7643 7123,7667 7161,7690 7207,7708 7390,7786 7586,7824 7786,7854 7837,7863 7891,7875 7941,7887 8112,7932 8265,8017 8422,8087 8509,8125 8563,8187 8609,8260 8660,8339 8721,8414 8775,8491 8784,8502 8793,8509 8809,8521 8801,8836 8842,9221 8952,9695 8996,9882 9031,10056 9060,10215 8965,10253 8873,10283 8791,10306 8366,10424 7868,10765 7776,11232 7764,11303 7758,11381 7766,11470 7751,11432 7735,11391 7722,11353 7700,11282 7671,11217 7646,11146 7637,11126 7633,11103 7640,11078 7659,10986 7676,10891 7700,10800 7717,10740 7748,10686 7773,10629 7779,10614 7796,10600 7812,10594 7868,10566 7904,10520 7900,10459 7897,10405 7871,10361 7824,10333 7789,10308 7748,10306 7710,10323 7669,10345 7646,10376 7643,10421 7643,10459 7659,10494 7687,10520 7710,10545 7710,10564 7694,10591 7618,10714 7584,10848 7555,10986 7551,11002 7545,11020 7538,11043 7530,11035 7523,11032 7520,11027 7453,10962 7390,10894 7323,10831 7302,10812 7286,10791 7282,10762 7279,10738 7276,10714 7276,10689 7273,10662 7269,10632 7266,10604 7261,10547 7251,10488 7251,10427 7254,10209 7279,9992 7330,9780 7364,9644 7381,9506 7371,9365 7364,9271 7351,9177 7340,9082 7320,8956 7310,8829 7307,8700 7305,8540 7356,8391 7428,8245 7438,8228 7448,8210 7453,8194 7456,8184 7448,8175 7443,8163 7435,8167 7418,8169 7412,8175 7399,8194 7387,8213 7377,8235 7351,8286 7330,8339 7305,8398 7261,8495 7212,8590 7171,8691 7118,8827 7115,8965 7159,9105 7194,9218 7220,9335 7263,9443 7269,9458 7273,9473 7269,9488 7266,9576 7269,9661 7238,9746 7212,9815 7203,9882 7210,9953 7212,9980 7212,10008 7210,10035 7203,10156 7197,10276 7190,10397 7187,10465 7190,10532 7207,10600 7212,10629 7220,10659 7215,10693 7210,10686 7207,10676 7200,10671 7153,10588 7108,10505 7061,10427 7033,10376 7013,10326 7007,10270 6991,10159 6982,10046 6959,9935 6943,9849 6940,9761 6931,9677 6915,9523 6877,9373 6833,9227 6826,9203 6813,9183 6804,9158 6772,9089 6741,9014 6705,8948 6684,8903 6659,8862 6630,8820 6605,8782 6575,8748 6551,8711 6544,8703 6538,8691 6528,8686 6521,8683 6513,8679 6506,8679 6500,8683 6497,8691 6493,8698 6490,8703 6493,8710 6497,8714 6541,8862 6547,9014 6557,9165 6566,9314 6636,9435 6734,9544 6800,9617 6841,9697 6870,9786 6895,9868 6912,9957 6921,10042 6933,10156 6959,10270 6987,10383 6997,10427 7028,10465 7051,10503 7076,10547 7102,10588 7120,10632 7079,10603 7045,10566 7016,10528 6959,10447 6889,10376 6807,10314 6779,10295 6759,10261 6738,10238 6687,10185 6636,10132 6585,10080 6575,10071 6566,10061 6557,10049 6503,9959 6439,9871 6395,9773 6341,9658 6297,9537 6252,9420 6243,9397 6239,9370 6234,9344 6228,9317 6228,9297 6249,9272 6275,9250 6275,9218 6262,9188 6236,9132 6192,9097 6129,9079 6110,9074 6088,9077 6069,9079 6005,9094 5977,9150 6011,9203 6041,9246 6078,9284 6136,9303 6157,9309 6164,9322 6170,9341 6192,9446 6239,9547 6285,9647 6331,9761 6382,9875 6456,9980 6459,9982 6456,9985 6456,9988 6452,9988 6449,9995 6449,9992 6354,9944 6256,9909 6170,9841 6085,9773 5990,9720 5898,9661 5837,9623 5777,9587 5729,9537 5714,9518 5704,9499 5701,9473 5698,9370 5714,9271 5733,9170 5770,8976 5650,8782 5476,8694 5293,8600 5106,8505 4909,8436 4845,8411 4779,8400 4716,8383 4704,8379 4691,8379 4681,8379 4645,8379 4634,8398 4650,8426 4678,8471 4704,8514 4738,8550 4840,8650 4940,8744 5045,8839 5099,8885 5163,8926 5223,8968 5286,9009 5337,9055 5378,9117 5416,9173 5452,9229 5493,9291 5476,9288 5467,9284 5457,9284 5454,9309 5467,9320 5483,9332 5524,9367 5555,9408 5588,9453 5639,9529 5704,9594 5783,9647 5811,9665 5837,9688 5862,9705 5860,9708 5857,9715 5854,9718 5796,9697 5739,9677 5685,9650 5629,9623 5572,9597 5514,9566 5463,9534 5413,9503 5365,9468 5280,9397 5181,9339 5080,9288 5052,9272 5027,9259 5004,9238 4925,9155 4849,9074 4773,8988 4757,8969 4747,8948 4732,8925 4742,8915 4750,8906 4760,8897 4776,8880 4779,8859 4776,8839 4763,8774 4675,8703 4602,8706 4568,8706 4532,8717 4509,8744 4478,8782 4478,8836 4519,8867 4545,8885 4576,8900 4604,8908 4640,8918 4668,8929 4688,8956 4760,9058 4865,9139 4950,9229 4957,9238 4966,9246 4970,9263 4950,9259 4932,9256 4912,9246 4801,9206 4691,9158 4579,9120 4478,9086 4373,9054 4269,9020 4232,9009 4189,9009 4152,9009 4053,9009 3958,9014 3861,9020 3662,9032 3475,9082 3298,9165 3193,9212 3093,9259 2981,9288 2950,9297 2919,9309 2889,9322 2880,9329 2868,9347 2870,9358 2873,9370 2889,9379 2902,9385 2914,9392 2934,9392 2950,9385 3076,9356 3200,9373 3324,9397 3475,9427 3628,9423 3781,9408 3882,9400 3974,9370 4053,9309 4127,9250 4215,9227 4304,9203 4320,9200 4339,9193 4355,9188 4399,9170 4447,9168 4494,9180 4579,9200 4665,9223 4750,9246 4791,9259 4830,9268 4871,9279 5065,9339 5239,9430 5403,9541 5508,9612 5613,9673 5729,9723 5616,9695 5501,9670 5391,9638 5308,9614 5232,9579 5153,9549 5068,9518 4978,9491 4886,9485 4817,9483 4747,9488 4681,9515 4542,9568 4406,9620 4266,9673 4186,9703 4117,9749 4053,9803 3994,9853 3924,9894 3861,9942 3858,9944 3854,9944 3851,9947 3845,9957 3832,9970 3835,9976 3838,9985 3854,9997 3863,9997 3927,10001 3991,10011 4050,10006 4133,10000 4212,9997 4294,9995 4396,9992 4501,9985 4602,9968 4678,9953 4755,9923 4827,9891 4916,9853 5011,9832 5106,9809 5160,9796 5211,9783 5265,9780 5355,9771 5447,9768 5539,9780 5583,9786 5626,9791 5670,9791 5739,9791 5806,9799 5872,9830 6003,9882 6132,9930 6262,9980 6293,9992 6326,10000 6357,10008 6418,10023 6464,10056 6521,10099 6500,10094 6487,10090 6477,10086 6464,10083 6452,10076 6439,10071 6377,10046 6313,10038 6246,10045 6195,10046 6144,10052 6095,10056 6056,10059 6024,10052 5993,10030 5964,10011 5933,9997 5901,9988 5860,9980 5824,9995 5800,10026 5775,10059 5780,10090 5800,10124 5841,10190 5916,10215 5983,10175 6008,10162 6024,10132 6049,10102 6157,10097 6275,10088 6392,10106 6433,10111 6467,10132 6506,10150 6559,10175 6617,10202 6667,10235 6705,10260 6744,10288 6775,10317 6861,10402 6946,10494 7028,10583 7033,10585 7035,10588 7045,10598 6962,10583 6892,10566 6826,10535 6738,10494 6642,10482 6544,10462 6360,10424 6177,10432 5993,10452 5945,10459 5898,10462 5854,10462 5752,10465 5654,10482 5559,10520 5539,10528 5514,10532 5495,10541 5480,10547 5460,10556 5470,10576 5476,10594 5493,10598 5508,10591 5680,10547 5844,10598 6005,10636 6100,10655 6192,10689 6287,10709 6351,10724 6413,10732 6477,10738 6547,10743 6610,10735 6677,10712 6775,10676 6877,10667 6979,10667 7003,10667 7035,10676 7057,10689 7210,10770 7333,10879 7448,11000 7476,11032 7497,11068 7523,11103 7520,11106 7520,11108 7517,11112 7450,11100 7387,11088 7320,11074 7273,11062 7222,11050 7174,11035 7156,11030 7140,11020 7127,11008 7099,10986 7067,10970 7028,10964 6969,10955 6928,10992 6931,11046 6933,11103 6959,11150 7013,11179 7067,11207 7105,11203 7143,11156 7146,11153 7149,11150 7159,11141 7187,11146 7220,11156 7251,11164 7307,11176 7361,11191 7418,11201 7479,11212 7533,11232 7577,11270 7592,11285 7618,11296 7633,11312 7646,11323 7659,11338 7666,11353 7704,11434 7761,11523 7805,11608 7853,11770 7953,11949 8138,12140 7966,12223 7779,12317 7586,12438 7412,12547 7327,12662 7320,12786 7307,13023 7605,13250 7951,13511 8448,13887 9012,14317 8809,14897 8683,15264 8470,15500 8179,15598 8150,15534 8119,15469 8084,15405 7637,14559 7203,14461 6984,14475 6734,14494 6566,14676 6510,14847 6452,15026 6506,15203 6651,15312 6943,15522 7577,15837 8132,15693 8289,16087 8289,16402 8128,16637 7815,17093 6991,17084 6982,17084 L 6982,17157 6994,17157 C 7110,17157 7878,17141 8194,16678 8368,16425 8373,16087 8207,15673 8521,15564 8750,15314 8886,14923 9104,14294 8493,13831 8002,13458 7687,13220 7390,12993 7399,12794 7402,12693 7479,12599 7630,12504 7827,12382 8020,12287 8194,12202 8283,12287 8391,12378 8517,12470 9449,13135 10282,13670 11103,13708 10850,13894 10549,14446 10549,16046 L 10628,16046 C 10628,14402 10954,13914 11148,13770 11189,13738 11230,13720 11261,13710 11668,13700 12073,13558 12488,13246 13277,12655 13359,12409 13524,11918 13629,11605 13772,11182 14174,10494 14792,9435 14607,8915 14446,8459 14357,8324 14313,8205 14287,8074 Z M 11069,10071 C 11059,10061 11066,10038 11071,10023 11091,9980 11110,9957 11138,9947 11145,9944 11154,9944 11164,9944 11223,9944 11312,9995 11404,10045 11414,10049 11420,10052 11430,10059 11258,10088 11103,10109 11069,10071 Z M 11825,11085 C 11791,11118 11712,11126 11589,11112 11246,11068 10977,11093 10825,11121 10961,11005 11227,10819 11528,10819 11630,10819 11737,10841 11845,10891 11861,10982 11863,11053 11825,11085 Z M 11081,4819 C 11087,4819 11084,4819 11081,4819 Z M 11543,5531 C 11547,5531 11550,5531 11553,5533 11547,5586 11540,5641 11530,5694 11515,5779 11489,5863 11477,5952 11461,6045 11427,6131 11379,6211 11366,6231 11353,6249 11338,6267 11227,6385 11084,6454 10920,6489 10846,6504 10771,6517 10697,6532 10669,6537 10644,6542 10615,6549 10485,6585 10369,6643 10251,6699 10238,6704 10229,6711 10216,6716 10267,6643 10333,6582 10410,6532 10441,6511 10472,6494 10502,6473 10600,6405 10700,6346 10812,6299 10928,6252 11053,6222 11179,6199 11195,6196 11217,6196 11233,6174 11115,6177 11015,6222 10904,6234 10951,6199 11002,6168 11049,6134 11053,6134 11056,6134 11056,6131 11079,6120 11100,6108 11120,6093 11141,6079 11161,6060 11179,6044 11268,5969 11356,5896 11417,5798 11455,5737 11487,5676 11512,5608 11525,5581 11535,5555 11543,5531 Z M 10356,6464 C 10425,6348 10510,6249 10618,6164 10663,6128 10710,6096 10758,6070 10825,6035 10897,6007 10964,5972 11046,5931 11138,5899 11215,5843 11319,5767 11414,5684 11489,5581 11499,5570 11509,5558 11515,5546 11471,5722 11322,5931 11205,5987 11227,5958 11249,5931 11268,5906 11315,5836 11315,5836 11312,5813 11309,5817 11302,5817 11302,5820 11258,5903 11192,5969 11132,6044 11120,6060 11100,6075 11081,6087 11005,6136 10926,6187 10846,6234 10797,6267 10743,6294 10688,6322 10659,6337 10628,6351 10587,6373 10646,6287 10717,6217 10758,6128 10751,6134 10748,6139 10743,6146 10685,6217 10631,6287 10577,6358 10552,6393 10520,6420 10482,6443 10416,6487 10343,6522 10285,6575 L 10277,6575 C 10305,6540 10331,6502 10356,6464 Z M 9757,5240 C 9788,5300 9829,5353 9880,5396 9972,5476 10064,5555 10156,5634 10207,5679 10251,5732 10277,5793 10295,5834 10308,5874 10323,5916 10343,5969 10352,6025 10352,6085 10349,6206 10336,6325 10298,6443 10280,6504 10248,6563 10216,6623 10223,6540 10229,6461 10231,6378 10231,6335 10226,6290 10223,6249 10223,6237 10219,6222 10219,6211 10226,6161 10238,6111 10244,6063 10251,6020 10257,5979 10264,5934 10264,5929 10261,5919 10261,5914 L 10251,5914 C 10229,5997 10223,6085 10195,6170 10182,6136 10165,6105 10159,6073 10134,5982 10090,5899 10026,5825 10016,5813 10008,5796 10003,5779 9998,5743 9995,5707 9995,5676 9995,5631 9995,5584 9982,5540 9962,5611 9979,5681 9969,5752 9949,5725 9934,5696 9921,5666 9896,5611 9874,5552 9829,5505 9801,5472 9788,5438 9775,5396 9770,5372 9762,5350 9750,5328 9731,5293 9728,5255 9726,5214 9744,5220 9750,5228 9757,5240 Z M 10090,5982 C 10087,5982 10087,5984 10083,5984 10080,5975 10077,5967 10074,5958 10077,5963 10083,5972 10090,5982 Z M 10074,6287 C 10051,6206 10008,6131 9957,6058 9908,5987 9864,5914 9823,5840 9792,5785 9767,5725 9738,5669 9709,5616 9690,5565 9683,5505 9677,5445 9675,5384 9675,5326 9675,5284 9677,5240 9680,5199 9690,5205 9693,5212 9693,5217 9703,5270 9719,5319 9747,5369 9754,5379 9754,5391 9757,5402 9770,5438 9782,5472 9811,5502 9833,5528 9849,5555 9859,5586 9880,5669 9915,5748 9975,5817 9991,5834 10008,5853 10020,5870 10039,5896 10051,5922 10067,5952 10020,5906 9972,5855 9928,5808 9880,5757 9836,5707 9788,5660 9785,5672 9788,5684 9795,5694 9826,5737 9859,5782 9900,5817 9921,5834 9944,5855 9966,5874 10049,5956 10100,6051 10146,6149 10172,6202 10190,6256 10190,6310 10190,6399 10185,6487 10178,6572 10172,6625 10146,6676 10121,6726 10121,6714 10121,6701 10124,6689 10136,6602 10141,6517 10115,6428 10105,6382 10087,6335 10074,6287 Z M 7225,5312 C 7222,5312 7220,5312 7225,5312 Z M 6633,6413 C 6741,6563 6880,6685 7033,6792 7143,6872 7273,6916 7397,6978 7494,7029 7599,7067 7694,7120 7766,7158 7833,7205 7897,7254 8053,7378 8179,7526 8281,7690 8315,7746 8350,7803 8388,7860 L 8376,7860 C 8293,7781 8189,7731 8094,7667 8040,7632 7994,7591 7958,7541 7878,7437 7796,7334 7717,7231 7710,7221 7704,7213 7694,7205 7754,7334 7853,7433 7941,7557 7884,7528 7840,7509 7796,7488 7720,7446 7640,7405 7564,7357 7450,7288 7336,7216 7225,7143 7200,7125 7174,7102 7153,7078 7064,6976 6972,6875 6905,6754 6902,6752 6895,6749 6892,6746 6889,6780 6889,6784 6956,6878 6984,6919 7016,6957 7048,6999 6877,6919 6661,6613 6598,6358 6608,6382 6620,6396 6633,6413 Z M 8432,8031 C 8261,7948 8091,7860 7904,7810 7866,7799 7824,7791 7783,7784 7676,7765 7568,7748 7459,7724 7222,7676 7020,7569 6854,7402 6833,7378 6813,7349 6795,7322 6725,7205 6671,7080 6651,6947 6633,6818 6598,6696 6572,6572 6557,6496 6551,6420 6538,6344 6541,6344 6547,6340 6551,6340 6564,6375 6579,6411 6592,6446 6626,6542 6674,6635 6728,6723 6816,6863 6946,6966 7074,7076 7102,7099 7130,7125 7161,7145 7190,7166 7222,7183 7254,7202 7256,7205 7261,7205 7263,7205 7333,7251 7405,7299 7476,7349 7317,7334 7171,7269 7000,7264 7025,7291 7054,7291 7079,7295 7261,7332 7438,7376 7612,7443 7776,7507 7922,7595 8061,7693 8106,7723 8150,7753 8198,7781 8309,7854 8401,7943 8476,8051 8463,8046 8448,8039 8432,8031 Z M 8422,6890 L 8410,6890 C 8407,6902 8404,6910 8404,6923 8414,6985 8422,7049 8432,7111 8445,7181 8458,7254 8470,7326 8473,7342 8468,7360 8468,7378 8461,7440 8452,7505 8455,7566 8458,7683 8468,7803 8476,7920 8432,7834 8388,7753 8360,7660 8306,7490 8286,7317 8283,7140 8281,7057 8296,6978 8325,6900 8347,6840 8366,6777 8394,6720 8432,6631 8496,6555 8568,6489 8701,6375 8835,6260 8968,6146 9044,6082 9104,6005 9149,5919 9158,5903 9167,5887 9183,5873 9180,5929 9173,5984 9149,6037 9132,6070 9124,6101 9114,6134 9098,6189 9078,6246 9037,6290 8978,6360 8942,6443 8908,6525 8888,6570 8866,6610 8837,6648 8825,6547 8844,6443 8819,6340 8803,6405 8803,6470 8801,6534 8801,6585 8793,6635 8788,6685 8784,6708 8771,6734 8755,6752 8663,6858 8601,6978 8563,7111 8550,7158 8527,7205 8509,7251 8463,7137 8455,7011 8422,6890 Z M 8689,6957 C 8683,6969 8680,6985 8673,6995 8670,6992 8667,6992 8663,6991 8673,6981 8680,6969 8689,6957 Z M 8609,8023 C 8614,8036 8616,8055 8614,8072 8578,8001 8537,7932 8530,7852 8517,7724 8512,7598 8512,7471 8512,7390 8540,7311 8575,7238 8642,7092 8717,6954 8835,6840 8866,6811 8898,6780 8932,6754 8996,6704 9040,6640 9085,6575 9095,6563 9098,6547 9095,6528 9029,6599 8962,6673 8895,6742 8829,6814 8758,6885 8691,6951 8714,6913 8737,6872 8762,6834 8781,6809 8803,6780 8825,6754 8911,6658 8962,6542 8993,6423 9006,6375 9029,6335 9060,6297 9098,6252 9119,6202 9136,6151 9142,6136 9142,6120 9152,6105 9190,6035 9216,5960 9231,5884 9234,5874 9237,5867 9250,5858 9252,5919 9260,5979 9260,6041 9260,6128 9252,6214 9247,6302 9240,6388 9211,6464 9170,6540 9129,6623 9091,6704 9047,6787 8986,6893 8924,7001 8854,7105 8781,7211 8717,7317 8686,7437 8667,7507 8642,7576 8619,7645 8584,7769 8591,7895 8609,8023 Z M 7210,9188 C 7200,9150 7194,9108 7177,9070 7115,8906 7149,8751 7222,8588 7225,8597 7228,8603 7228,8605 7220,8794 7241,8979 7279,9165 7286,9196 7286,9231 7289,9268 7254,9188 7241,9102 7197,9026 7203,9077 7215,9124 7228,9170 7241,9218 7256,9265 7256,9313 7231,9276 7220,9231 7210,9188 Z M 6851,9647 C 6823,9606 6800,9566 6769,9532 6718,9483 6680,9427 6639,9367 6598,9309 6575,9244 6569,9173 6557,9051 6544,8929 6528,8809 6528,8802 6531,8797 6531,8789 6582,8840 6613,8900 6639,8958 6664,9014 6690,9070 6718,9127 6734,9162 6753,9196 6766,9234 6787,9297 6797,9360 6810,9427 6807,9427 6804,9430 6800,9430 6772,9367 6744,9306 6715,9246 6712,9246 6708,9250 6705,9250 6712,9271 6715,9288 6725,9309 6756,9377 6787,9443 6823,9511 6838,9553 6854,9597 6851,9647 Z M 5644,9142 C 5634,9200 5626,9259 5616,9329 5588,9263 5562,9203 5539,9143 5529,9117 5524,9089 5518,9058 5501,8997 5480,8941 5435,8893 5429,8888 5419,8882 5403,8874 5406,8885 5406,8891 5406,8893 5457,9047 5511,9196 5562,9351 5565,9360 5568,9370 5572,9382 5568,9385 5565,9385 5565,9389 5559,9377 5549,9365 5542,9351 5488,9263 5439,9177 5385,9089 5340,9017 5280,8963 5206,8915 5137,8870 5070,8820 5007,8767 4912,8686 4824,8600 4735,8514 4712,8495 4696,8467 4678,8445 4671,8436 4671,8426 4662,8406 4716,8421 4763,8429 4804,8445 4883,8474 4963,8502 5039,8539 5172,8600 5306,8660 5429,8732 5593,8824 5670,8963 5644,9142 Z M 4189,9142 C 4174,9143 4155,9143 4140,9146 4053,9150 3965,9150 3879,9155 3832,9158 3787,9170 3742,9183 3719,9188 3703,9203 3685,9215 3719,9208 3752,9191 3784,9184 3892,9162 4002,9177 4117,9168 4050,9208 3997,9250 3933,9282 3892,9303 3848,9327 3804,9332 3695,9347 3583,9358 3475,9354 3349,9347 3222,9320 3108,9306 3168,9272 3234,9234 3304,9203 3475,9124 3652,9077 3845,9062 3930,9055 4015,9054 4101,9051 4206,9044 4297,9074 4393,9105 4320,9117 4253,9130 4189,9142 Z M 5442,9726 C 5391,9720 5337,9720 5286,9726 5255,9730 5219,9723 5188,9718 5144,9711 5099,9695 5055,9692 4906,9680 4757,9697 4611,9735 4604,9738 4602,9742 4596,9743 4614,9742 4634,9742 4650,9738 4773,9711 4899,9703 5027,9708 5073,9711 5119,9720 5160,9742 5137,9749 5119,9753 5096,9756 4985,9776 4874,9796 4773,9844 4716,9871 4655,9891 4592,9909 4560,9920 4526,9923 4491,9925 4371,9935 4253,9953 4133,9944 4099,9942 4063,9950 4028,9953 3997,9957 3965,9959 3933,9959 3920,9959 3907,9953 3892,9947 3946,9906 3999,9868 4048,9830 4101,9786 4158,9746 4225,9720 4368,9665 4509,9609 4653,9556 4735,9528 4817,9523 4903,9541 4985,9559 5065,9587 5144,9617 5216,9644 5290,9667 5365,9692 5398,9700 5432,9708 5464,9715 5460,9726 5452,9726 5442,9726 Z M 6846,10617 C 6751,10623 6661,10644 6572,10674 6544,10682 6513,10686 6480,10689 6385,10690 6293,10674 6205,10647 6095,10617 5983,10588 5872,10560 5813,10545 5752,10535 5688,10520 L 5688,10515 C 5708,10512 5726,10509 5749,10505 5847,10497 5945,10488 6044,10478 6164,10471 6282,10455 6402,10475 6480,10488 6559,10500 6636,10518 6680,10526 6725,10535 6769,10561 6753,10566 6744,10571 6734,10573 6677,10583 6617,10588 6559,10598 6513,10603 6464,10609 6418,10617 6402,10621 6385,10629 6367,10636 6367,10638 6370,10641 6370,10644 6493,10632 6613,10636 6734,10609 6779,10600 6823,10594 6877,10609 6861,10614 6851,10617 6846,10617 Z M 6651,15249 C 6531,15162 6487,15017 6538,14863 6585,14717 6728,14563 6943,14547 L 6982,14547 C 7190,14547 7564,14676 7963,15434 7999,15500 8027,15560 8053,15620 7533,15753 6931,15453 6651,15249 Z M 8990,9650 C 8762,8676 8803,8024 9124,7602 9405,7228 9874,7076 10369,6916 10457,6887 10549,6858 10638,6828 11668,6475 11722,6308 11819,6005 11825,5984 11832,5960 11842,5941 11958,5596 12142,5366 12770,5152 13264,4981 13552,4867 13692,4705 13641,4993 13413,5548 12456,5861 11753,6089 11705,6423 11661,6739 11617,7045 11572,7364 10933,7629 10070,7981 9636,8308 9642,8593 9646,8759 9801,8897 10095,9006 10238,9058 10305,9127 10302,9221 10289,9503 9646,9923 9088,10159 9065,10000 9031,9832 8990,9650 Z M 8163,12107 C 7874,11810 7754,11508 7812,11220 7900,10781 8368,10462 8771,10349 8854,10326 8939,10298 9031,10264 9234,11567 8816,11787 8163,12107 Z M 14190,7975 C 14075,7937 13987,7875 13936,7837 13987,7822 14034,7803 14079,7781 14097,7803 14133,7829 14180,7854 14182,7895 14187,7937 14190,7975 Z M 14151,7743 C 14164,7733 14177,7728 14187,7720 14187,7736 14182,7753 14182,7769 14170,7761 14161,7753 14151,7743 Z M 12307,9997 C 12434,9997 12535,10018 12583,10073 12611,10106 12618,10124 12621,10131 12596,10140 12491,10135 12412,10131 12352,10126 12286,10121 12222,10121 12260,10088 12288,10046 12307,9997 Z M 11661,10088 C 11845,10052 12048,10011 12222,10000 12196,10046 12161,10080 12114,10099 11953,10174 11800,10147 11661,10088 Z M 14056,10452 C 13654,11146 13508,11577 13400,11888 13239,12365 13160,12602 12389,13182 12203,13322 12016,13427 11832,13499 11886,13455 11933,13402 11963,13338 12038,13164 11971,12953 11766,12710 11481,12373 11464,12223 11499,12155 11540,12079 11683,12067 11800,12067 L 11876,12067 11950,12067 C 12038,12064 12124,12024 12155,11968 12171,11938 12171,11906 12152,11880 12104,11813 11958,11791 11722,11810 11173,11858 10974,11641 10971,11637 L 10967,11635 C 10869,11550 10828,11479 10846,11441 10900,11330 11382,11355 11671,11370 11978,11384 12076,11388 12099,11338 12104,11327 12111,11303 12083,11277 12006,11201 12004,11169 12004,11167 12060,11176 12307,11217 12485,11141 12655,11068 13052,11126 13058,11126 L 13219,11150 13087,11058 C 12431,10611 12045,10729 11912,10803 11912,10793 11909,10788 11909,10778 11886,10662 11861,10526 11866,10383 11870,10326 11889,10285 11927,10257 12029,10174 12240,10188 12409,10200 12560,10212 12662,10217 12696,10162 12722,10118 12684,10064 12650,10026 12586,9953 12473,9925 12335,9923 12409,9632 12288,9146 12165,8641 12066,8235 11963,7812 11963,7499 11963,7155 12240,6872 12478,6699 13004,6310 13701,6126 13933,6173 14113,6211 14246,6260 14323,6378 14436,6555 14411,6893 14246,7433 14228,7496 14215,7554 14205,7610 13803,7983 12494,7834 12481,7831 L 12473,7905 C 12488,7907 12599,7920 12760,7929 12788,7970 12916,8140 13103,8258 L 13147,8195 C 13017,8112 12913,7998 12862,7932 12929,7934 13004,7937 13080,7937 L 13103,7937 C 13144,7993 13280,8160 13505,8232 L 13531,8160 C 13372,8108 13257,7998 13201,7934 13286,7932 13372,7929 13457,7920 13495,7973 13619,8099 13916,8172 L 13936,8102 C 13718,8049 13603,7963 13549,7910 13654,7898 13755,7882 13850,7854 13895,7895 14018,7998 14202,8049 14228,8194 14275,8327 14323,8467 14487,8941 14658,9423 14056,10452 Z "/>
       </g>
      </g>
     </g>
    </g>
   </g>
  </g>
 </g>
</svg>